<svg xmlns="http://www.w3.org/2000/svg" width="500" height="500" style="width:100%;height:100%"><defs><clipPath id="a"><path d="M0 0h500v500H0z"/></clipPath><mask id="b"><g display="block"><path fill="red" d="M162.097 55.162h-324.194v-189.084h324.194V55.162z" transform="translate(250 250)"/><path stroke-linecap="round" stroke-linejoin="round" fill-opacity="0" stroke="#121331" stroke-width="0" d="M412.097 305.162H87.903V116.078h324.194v189.084z"/></g></mask></defs><g display="block" clip-path="url(#a)"><path stroke-linecap="round" stroke-linejoin="round" stroke="#6610F1" stroke-width="12.6" d="M302.17 410.289l-19.938-17.164-7.594-29.05h-49.276l-7.595 29.05-19.937 17.164h104.34z" fill="none"/><path stroke-linecap="round" stroke-linejoin="round" stroke="#FDFAFA" stroke-width="12.6" d="M412.097 305.162H87.903V116.078h324.194v189.084zm6.476 59.01H81.427c-10.729 0-19.427-8.698-19.427-19.427V109.601c0-10.729 8.698-19.427 19.427-19.427h337.146c10.729 0 19.427 8.698 19.427 19.427v235.144c0 10.729-8.698 19.427-19.427 19.427z" fill="none"/><path fill="#6610F1" d="M261.549 334.764c0 6.378-5.171 11.549-11.549 11.549-6.378 0-11.549-5.171-11.549-11.549 0-6.378 5.171-11.549 11.549-11.549 6.378 0 11.549 5.171 11.549 11.549z"/></g></svg>