<svg xmlns="http://www.w3.org/2000/svg" width="500" height="500" style="width:100%;height:100%"><defs><clipPath id="a"><path d="M0 0h500v500H0z"/></clipPath><mask id="b"><g display="block"><path fill="#121331" d="M-46.547-2.678c10.42-14.44 27.39-23.84 46.56-23.84 19.16 0 36.13 9.4 46.55 23.84-10.41 14.44-27.38 23.84-46.55 23.84-19.17 0-36.15-9.4-46.56-23.84z" transform="matrix(3.45 0 0 3.45 250.002 257.762)"/><path stroke-linecap="round" stroke-linejoin="round" fill-opacity="0" stroke="#121331" stroke-width="12.075000000000001" d="M89.415 248.523c35.949-49.818 94.495-82.248 160.632-82.248 66.102 0 124.648 32.43 160.597 82.248-35.914 49.818-94.46 82.248-160.597 82.248-66.137 0-124.718-32.43-160.632-82.248z"/></g></mask></defs><g clip-path="url(#a)"><g mask="url(#b)" display="block"><path stroke-linecap="round" stroke-linejoin="round" stroke="#2415C6" stroke-width="12.075000000000001" d="M309.696 249.09c0 32.95-26.714 59.664-59.665 59.664-32.95 0-59.664-26.713-59.664-59.664s26.713-59.665 59.664-59.665 59.665 26.714 59.665 59.665z" fill="none"/></g><path stroke-linecap="round" stroke-linejoin="round" stroke="#121331" stroke-width="12.075000000000001" d="M89.415 248.523c35.949-49.818 94.495-82.248 160.632-82.248 66.102 0 124.648 32.43 160.597 82.248-35.914 49.818-94.46 82.248-160.597 82.248-66.137 0-124.718-32.43-160.632-82.248z" fill="none" display="block"/></g></svg>