<svg width="175" height="175" viewBox="0 0 175 175" fill="none" xmlns="http://www.w3.org/2000/svg">
<rect x="34" y="61" width="133" height="107" fill="#1A1A1A"/>
<path d="M0 0V175H175V0H0ZM95.2375 136.481C95.2375 153.512 85.2375 161.287 70.6688 161.287C57.5063 161.287 49.8875 154.494 45.9813 146.25L59.3813 138.163C61.9625 142.731 64.3062 146.6 69.9687 146.6C75.3562 146.6 78.7938 144.487 78.7938 136.25V80.35H95.2375V136.481ZM134.137 161.287C118.862 161.287 108.981 154.025 104.175 144.488L117.575 136.756C121.094 142.5 125.7 146.756 133.788 146.756C140.581 146.756 144.963 143.356 144.963 138.631C144.963 133.006 140.506 131.012 132.969 127.694L128.869 125.937C116.994 120.9 109.144 114.531 109.144 101.131C109.144 88.7875 118.556 79.4125 133.206 79.4125C143.675 79.4125 151.175 83.0438 156.569 92.575L143.756 100.781C140.944 95.7438 137.894 93.75 133.169 93.75C128.369 93.75 125.319 96.8 125.319 100.781C125.319 105.706 128.369 107.694 135.438 110.781L139.538 112.538C153.525 118.513 161.375 124.65 161.375 138.394C161.375 153.162 149.731 161.281 134.144 161.281L134.137 161.287Z" fill="#F1DC50"/>
</svg>
