<svg width="220" height="220" viewBox="0 0 220 220" fill="none" xmlns="http://www.w3.org/2000/svg">
<circle cx="110" cy="110" r="105" fill="#FEFBFB"/>
<path d="M158.431 197.533C157.688 197.927 157.75 198.052 158.462 197.689C158.682 197.599 158.883 197.47 159.056 197.308C159.056 197.177 159.056 197.177 158.431 197.533V197.533ZM159.931 196.72C159.575 197.014 159.575 197.014 160 196.82C160.157 196.747 160.301 196.648 160.425 196.527C160.425 196.358 160.325 196.395 159.931 196.72V196.72ZM160.906 196.133C160.55 196.427 160.55 196.427 160.975 196.233C161.133 196.158 161.276 196.056 161.4 195.933C161.4 195.777 161.3 195.808 160.906 196.133ZM161.894 195.552C161.537 195.845 161.538 195.845 161.95 195.645C162.181 195.52 162.375 195.389 162.375 195.352C162.375 195.195 162.275 195.227 161.894 195.552ZM163.225 194.67C162.544 195.127 162.306 195.42 162.931 195.095C163.35 194.839 164.062 194.277 163.937 194.277C163.669 194.377 163.444 194.545 163.219 194.67H163.225ZM103.456 10.0704C103 10.1016 101.631 10.2266 100.431 10.3266C72.0063 12.9016 45.4125 28.2016 28.5563 51.7704C19.241 64.6969 13.186 79.6823 10.9062 95.4516C10.1 100.952 10 102.577 10 110.033C10 117.483 10.1 119.083 10.9062 124.583C16.35 162.152 43.075 193.689 79.3 205.377C85.8188 207.458 92.65 208.895 100.431 209.777C103.456 210.102 116.538 210.102 119.563 209.777C133.013 208.277 144.369 204.958 155.606 199.227C157.331 198.352 157.656 198.12 157.425 197.927C151.943 190.68 146.508 183.399 141.119 176.083L125.138 154.502L105.119 124.845C98.4599 114.916 91.7326 105.032 84.9375 95.1954C84.8687 95.1954 84.7812 108.377 84.7437 124.452C84.675 152.608 84.675 153.752 84.3187 154.402C83.9771 155.187 83.365 155.823 82.5937 156.195C81.975 156.489 81.4188 156.552 78.4625 156.552H75.0813L74.2 156.002C73.6481 155.647 73.1996 155.154 72.9 154.57L72.475 153.689L72.5063 114.495L72.575 75.3016L73.1938 74.5204C73.5889 74.04 74.0754 73.6428 74.625 73.3516C75.4438 72.9579 75.7688 72.8954 79.15 72.8954C83.1188 72.8954 83.775 73.0516 84.8187 74.1954C92.9283 86.2571 100.968 98.3656 108.937 110.52C121.931 130.22 139.669 157.102 148.388 170.289L164.244 194.283L165.025 193.764C172.645 188.7 179.551 182.636 185.556 175.733C198.153 161.315 206.328 143.571 209.1 124.627C209.906 119.127 210.006 117.495 210.006 110.045C210.006 102.589 209.906 100.995 209.1 95.4954C203.656 57.9266 176.931 26.3891 140.706 14.6954C133.936 12.5511 126.968 11.0917 119.906 10.3391C118.012 10.1454 105.088 9.9141 103.463 10.0829L103.456 10.0704ZM144.375 70.5516C144.84 70.78 145.255 71.0988 145.595 71.4894C145.935 71.8801 146.194 72.3347 146.356 72.8266C146.525 73.3516 146.556 84.2204 146.525 108.702L146.456 143.852L140.275 134.352L134.056 124.845V99.3266C134.056 82.7829 134.125 73.5079 134.213 73.0516C134.518 72.0055 135.22 71.1198 136.169 70.5829C136.944 70.1891 137.244 70.1579 140.338 70.1579C143.231 70.1579 143.719 70.1891 144.369 70.5516H144.375Z" fill="#6610F2"/>
<path d="M164 194.5L163 193L157 196.5L158 198L164 194.5Z" fill="#FEFBFB" stroke="#FEFBFB" stroke-width="0.3"/>
</svg>
