<svg width="200" height="200" viewBox="0 0 200 200" fill="none" xmlns="http://www.w3.org/2000/svg">
<g clip-path="url(#clip0)">
<path d="M67 123L81 106.5H84L88 108.5L87 114.5L83 129L77 143L70.5 147.5L67 140.5V123Z" fill="#FEFBFB"/>
<path d="M111.5 143.5L122.5 131L125 135C124.333 137.5 122.9 142.6 122.5 143C122.1 143.4 118.667 145.833 117 147L111 146L111.5 143.5Z" fill="#FEFBFB"/>
<path d="M141.5 131.5L148 122.5L151.5 123.5L153 127L150.5 136L144.5 140L140 139.5L139 137.5L141.5 131.5Z" fill="#FEFBFB"/>
<path d="M94.3242 138.411C94.2305 138.599 94.1367 138.749 94.3242 138.411V138.411ZM172.174 111.224C165.887 111.224 159.687 112.661 154.049 115.442C152.205 111.724 150.299 108.474 149.987 106.036C149.612 103.192 149.205 101.505 149.643 98.1299C150.08 94.7549 152.049 89.9737 152.018 89.6299C151.987 89.2862 151.58 87.5674 147.549 87.5362C143.518 87.5049 140.049 88.3174 139.643 89.3799C138.93 91.3212 138.376 93.3174 137.987 95.3487C137.268 99.0049 129.93 112.067 125.774 118.88C124.399 116.224 123.243 113.88 122.993 112.005C122.618 109.161 122.212 107.474 122.649 104.099C123.087 100.724 125.055 95.9424 125.024 95.5987C124.993 95.2549 124.587 93.5362 120.562 93.5049C116.537 93.4737 113.062 94.2862 112.655 95.3487C112.249 96.4112 111.812 98.9112 110.999 101.317C110.187 103.724 100.405 125.474 97.8492 131.13C96.5367 134.005 95.4117 136.317 94.5992 137.88C94.4742 138.13 94.3805 138.286 94.318 138.411C94.4117 138.255 94.4742 138.099 94.4742 138.161C93.7867 139.505 93.3805 140.255 93.3805 140.255V140.286C92.8492 141.286 92.2555 142.192 91.9742 142.192C91.7867 142.192 91.3805 139.567 92.068 135.974C93.5367 128.411 97.0055 116.661 96.9742 116.255C96.943 116.036 97.6305 114.005 94.693 112.911C91.8492 111.88 90.818 113.599 90.568 113.599C90.318 113.599 90.1305 114.224 90.1305 114.224C90.1305 114.224 93.2867 100.974 84.068 100.974C78.318 100.974 70.318 107.286 66.3867 113.005C63.918 114.349 58.5742 117.255 52.9492 120.349L46.4805 123.911C46.3242 123.755 46.1992 123.599 46.043 123.442C34.8555 111.505 14.2055 103.067 15.0805 87.0362C15.393 81.1924 17.4242 65.8487 54.793 47.2237C85.418 31.9737 109.899 36.1612 114.118 45.4737C120.18 58.7549 101.024 83.4737 69.2242 87.0362C57.0992 88.3799 50.7305 83.6924 49.1367 81.9424C47.4805 80.0987 47.2305 80.0049 46.6055 80.3487C45.5742 80.9112 46.2305 82.5362 46.6055 83.5049C47.543 85.9737 51.4492 90.3487 58.1055 92.5362C63.9492 94.4424 78.1617 95.5049 95.343 88.8487C114.649 81.4112 129.68 60.6924 125.268 43.3487C120.78 25.7237 91.5555 19.9424 63.9242 29.7549C47.4555 35.5987 29.6492 44.7862 16.843 56.7549C1.62421 71.0049 -0.807041 83.4112 0.192959 88.5987C3.75546 107.005 29.1242 119.005 39.2742 127.88L37.868 128.661C32.7742 131.192 13.4367 141.317 8.59296 152.005C3.12421 164.13 9.49921 172.817 13.6805 174.005C26.743 177.63 40.1117 171.099 47.2992 160.38C54.4867 149.661 53.6117 135.661 50.2992 129.286C50.268 129.192 50.2055 129.13 50.1742 129.036C53.924 126.815 57.7057 124.648 61.518 122.536C60.268 125.911 59.3617 129.974 58.893 135.849C58.3305 142.724 61.1742 151.63 64.8617 155.13C66.4867 156.661 68.4492 156.692 69.6742 156.692C73.9867 156.692 75.9242 153.13 78.0805 148.88C80.7367 143.692 83.0805 137.661 83.0805 137.661C83.0805 137.661 80.143 153.974 88.1742 153.974C91.1117 153.974 94.0492 150.192 95.3617 148.255V148.286C95.3617 148.286 95.4242 148.161 95.5805 147.911C95.893 147.442 96.0492 147.161 96.0492 147.161V147.067C97.2367 145.036 99.8305 140.38 103.737 132.692C108.799 122.755 113.637 110.349 113.637 110.349C114.105 113.074 114.755 115.767 115.574 118.411C116.449 121.38 118.293 124.63 119.762 127.786C118.574 129.411 117.855 130.349 117.855 130.349C117.855 130.374 117.868 130.392 117.887 130.411C116.949 131.661 115.887 133.005 114.793 134.317C110.799 139.067 106.043 144.505 105.418 146.067C104.668 147.911 104.855 149.286 106.293 150.349C107.355 151.161 109.23 151.286 111.199 151.13C114.793 150.88 117.324 150.005 118.543 149.442C120.791 148.637 122.915 147.522 124.855 146.13C128.762 143.255 131.137 139.13 130.918 133.692C130.793 130.692 129.824 127.692 128.637 124.88C128.98 124.38 129.355 123.849 129.699 123.317C133.766 117.25 137.43 110.921 140.668 104.374C141.137 107.099 141.78 109.792 142.605 112.436C143.355 114.967 144.824 117.749 146.168 120.467C140.355 125.186 136.762 130.655 135.518 134.249C133.205 140.905 135.018 143.905 138.424 144.592C139.955 144.905 142.143 144.186 143.768 143.499C146.18 142.692 148.455 141.524 150.512 140.03C154.418 137.155 158.199 133.124 157.943 127.655C157.849 125.186 157.162 122.717 156.255 120.342C161.162 118.28 167.537 117.155 175.662 118.092C193.062 120.124 196.468 130.999 195.812 135.53C195.155 140.061 191.499 142.592 190.28 143.342C189.062 144.092 188.687 144.374 188.78 144.936C188.937 145.749 189.499 145.717 190.53 145.53C191.968 145.28 199.655 141.842 199.999 133.436C200.499 122.811 190.28 111.124 172.187 111.217L172.174 111.224ZM38.0555 156.442C32.3055 162.724 24.2492 165.099 20.7805 163.099C17.0617 160.936 18.5305 151.692 25.618 144.999C29.9305 140.936 35.493 137.186 39.1805 134.874C40.0242 134.374 41.243 133.624 42.743 132.717C42.8648 132.639 42.99 132.566 43.118 132.499C43.3992 132.311 43.7117 132.155 44.0242 131.967C46.6117 141.467 44.118 149.842 38.0555 156.436V156.442ZM80.043 127.88C78.043 132.786 73.8305 145.286 71.2617 144.63C69.0742 144.067 67.7305 134.536 70.8242 125.161C72.3867 120.442 75.6992 114.817 77.668 112.63C80.8242 109.099 84.293 107.974 85.1055 109.38C86.1992 111.224 81.293 124.817 80.043 127.88ZM114.73 144.442C113.887 144.88 113.105 145.161 112.73 144.942C112.449 144.786 113.074 144.192 113.074 144.192C113.074 144.192 117.418 139.536 119.137 137.411C120.137 136.161 121.293 134.692 122.543 133.067C122.543 133.224 122.574 133.38 122.574 133.567C122.537 139.161 117.162 142.942 114.724 144.442H114.73ZM141.48 138.349C140.855 137.911 140.949 136.442 143.043 131.88C143.855 130.099 145.73 127.099 148.98 124.224C149.349 125.311 149.549 126.449 149.574 127.599C149.543 134.63 144.512 137.255 141.48 138.349V138.349Z" fill="#6610F2"/>
</g>
<defs>
<clipPath id="clip0">
<rect width="200" height="200" fill="white"/>
</clipPath>
</defs>
</svg>
