<svg width="124" height="124" viewBox="0 0 124 124" fill="none" xmlns="http://www.w3.org/2000/svg">
<rect width="124" height="124" rx="6" fill="#0E091B"/>
<g clip-path="url(#clip0_1644_48)">
<path d="M43.9819 36.1073C42.8953 36.1073 42.0416 36.2626 41.4207 36.573C40.8515 36.8835 40.4376 37.582 40.1789 38.6685C39.9719 39.7551 39.8684 41.4885 39.8684 43.8685V51.4745C39.8684 53.4407 39.558 55.1482 38.9371 56.5969C38.3679 57.9939 37.6953 59.1322 36.9192 60.0118C36.1431 60.8915 35.4186 61.564 34.746 62.0297C35.3152 62.4437 35.9878 63.0904 36.7639 63.97C37.5918 64.7978 38.3162 65.8327 38.9371 67.0745C39.558 68.2646 39.8684 69.6098 39.8684 71.1103V80.4238C39.8684 82.7521 39.9719 84.4596 40.1789 85.5461C40.4376 86.6327 40.8515 87.3312 41.4207 87.6417C42.0416 87.9521 42.8953 88.1073 43.9819 88.1073H46.8535V97.576H40.7222C39.2734 97.576 37.8246 97.5501 36.3759 97.4984C34.9789 97.4467 33.6853 97.162 32.4953 96.6446C31.3052 96.179 30.348 95.2735 29.6236 93.9282C28.951 92.6347 28.6147 90.7461 28.6147 88.2626V75.4566C28.6147 73.1282 28.0973 71.0586 27.0625 69.2476C26.0276 67.3849 24.4495 66.4277 22.3281 66.376V57.373C24.4495 57.3213 26.0276 56.39 27.0625 54.579C28.0973 52.768 28.6147 50.6725 28.6147 48.2924V36.0297C28.6147 33.5461 28.951 31.6576 29.6236 30.364C30.2963 29.0705 31.2018 28.165 32.3401 27.6476C33.5301 27.1302 34.8496 26.8456 36.2983 26.7939C37.747 26.6904 39.2216 26.6387 40.7222 26.6387H46.8535V36.1073H43.9819ZM101.846 62.7282C101.846 68.0058 101.2 72.9471 99.9062 77.5521C98.6644 82.1571 97.0603 86.2446 95.0942 89.8148C93.128 93.4366 91.0325 96.4118 88.8076 98.7402L79.8823 94.6267C82.9349 91.1083 85.4703 86.7103 87.4882 81.4327C89.5062 76.1034 90.5151 69.8685 90.5151 62.7282C90.5151 55.5879 89.5062 49.379 87.4882 44.1014C85.4703 38.772 82.9349 34.374 79.8823 30.9073L88.8076 26.7163C91.0325 29.0446 93.128 32.0198 95.0942 35.6417C97.0603 39.2635 98.6644 43.3769 99.9062 47.982C101.2 52.5352 101.846 57.4506 101.846 62.7282Z" fill="#6610F2"/>
</g>
<defs>
<clipPath id="clip0_1644_48">
<rect width="80" height="72.8358" fill="white" transform="translate(22 26)"/>
</clipPath>
</defs>
</svg>
