<svg width="733" height="855" viewBox="0 0 733 855" fill="none" xmlns="http://www.w3.org/2000/svg">
<g id="Frame 2">
<g id="default">
<path id="Union" fill-rule="evenodd" clip-rule="evenodd" d="M43.0045 672C43.199 682.065 50.9761 692.101 66.3358 699.781L309.963 821.594C341.076 837.151 391.521 837.151 422.635 821.594L666.262 699.781C682.822 691.501 690.568 680.483 689.5 669.641V514H401.293C379.275 508.618 353.323 508.618 331.304 514H43V672H43.0045Z" fill="url(#paint0_linear_2027_158)"/>
<rect id="Rectangle 464" x="11.2672" width="385.757" height="385.757" rx="56.6868" transform="matrix(0.894427 -0.447214 0.894427 0.447214 11.1895 519.188)" fill="#2A2043" stroke="#2A2043" stroke-width="12.5971"/>
<g id="Rectangle 465" filter="url(#filter0_i_2027_158)">
<rect width="249.416" height="249.416" rx="39.4362" transform="matrix(0.894427 -0.447214 0.894427 0.447214 145.529 511.714)" fill="#261D3C"/>
</g>
<path id="{ )" d="M383.024 472.6C381.278 471.592 379.657 470.944 378.16 470.656C376.747 470.416 374.959 470.68 372.798 471.448C370.719 472.264 367.768 473.776 363.943 475.984L351.722 483.04C348.563 484.864 345.32 486.16 341.995 486.928C338.836 487.696 335.926 488.128 333.265 488.224C330.605 488.32 328.36 488.272 326.531 488.08C326.781 488.992 326.822 490.216 326.656 491.752C326.656 493.288 326.157 494.92 325.159 496.648C324.245 498.328 322.582 499.864 320.171 501.256L305.206 509.896C301.465 512.056 298.888 513.736 297.474 514.936C296.144 516.184 295.687 517.216 296.102 518.032C296.601 518.896 297.724 519.832 299.47 520.84L304.084 523.504L288.869 532.288L279.017 526.6C276.69 525.256 274.403 523.888 272.159 522.496C269.997 521.152 268.376 519.688 267.295 518.104C266.131 516.568 266.048 514.84 267.046 512.92C268.043 511.096 270.537 509.032 274.528 506.728L295.105 494.848C298.846 492.688 301.34 490.288 302.587 487.648C303.917 484.96 302.92 482.608 299.594 480.592L314.06 472.24C317.552 474.16 321.584 474.76 326.157 474.04C330.73 473.32 334.928 471.856 338.752 469.648L358.456 458.272C362.447 455.968 366.022 454.528 369.181 453.952C372.34 453.376 375.25 453.376 377.911 453.952C380.654 454.576 383.232 455.536 385.643 456.832C388.137 458.08 390.589 459.4 393 460.792L402.852 466.48L387.638 475.264L383.024 472.6ZM433.226 550.977C424.746 555.873 415.767 559.857 406.289 562.929C396.895 566.049 387.75 568.353 378.854 569.841C369.875 571.377 361.727 572.193 354.411 572.289L346.679 560.193C357.238 559.761 368.378 558.033 380.101 555.009C391.906 551.937 403.546 547.089 415.019 540.465C426.492 533.841 434.847 527.145 440.085 520.377C445.406 513.56 448.399 507.128 449.064 501.08L470.14 505.472C469.973 509.696 468.56 514.4 465.9 519.584C463.239 524.768 459.207 530.072 453.803 535.497C448.565 540.921 441.706 546.081 433.226 550.977Z" fill="#5C566D"/>
</g>
<g id="luz-logo">
<g id="luz" filter="url(#filter1_i_2027_158)">
<rect width="249.416" height="249.416" rx="39.4362" transform="matrix(0.894427 -0.447214 0.894427 0.447214 145.529 511.714)" fill="url(#paint1_linear_2027_158)"/>
</g>
</g>
<g id="luz_2">
<path id="luz-logo_2" fill-rule="evenodd" clip-rule="evenodd" d="M570.68 124.014C571.204 118.345 567.971 108.961 550.839 101.654L411.012 32.6852C397.05 23.8673 360.183 11.5222 324.407 32.6852L186.469 101.654C179.856 104.384 166.44 112.299 165.684 122.124V490.589H165.736V511.656C165.211 515.435 168.444 524.82 185.576 532.126L325.404 601.095C339.365 609.913 376.233 622.258 412.008 601.095L549.946 532.126C556.56 529.397 569.976 521.481 570.732 511.656V487.091H570.68V124.014Z" fill="url(#paint2_linear_2027_158)"/>
</g>
<g id="logo-iuricode">
<path id="logo" d="M383.024 472.6C381.278 471.592 379.657 470.944 378.16 470.656C376.747 470.416 374.959 470.68 372.798 471.448C370.719 472.264 367.768 473.776 363.943 475.984L351.722 483.04C348.563 484.864 345.32 486.16 341.995 486.928C338.836 487.696 335.926 488.128 333.265 488.224C330.605 488.32 328.36 488.272 326.531 488.08C326.781 488.992 326.822 490.216 326.656 491.752C326.656 493.288 326.157 494.92 325.159 496.648C324.245 498.328 322.582 499.864 320.171 501.256L305.206 509.896C301.465 512.056 298.888 513.736 297.474 514.936C296.144 516.184 295.687 517.216 296.102 518.032C296.601 518.896 297.724 519.832 299.47 520.84L304.084 523.504L288.869 532.288L279.017 526.6C276.69 525.256 274.403 523.888 272.159 522.496C269.997 521.152 268.376 519.688 267.295 518.104C266.131 516.568 266.048 514.84 267.046 512.92C268.043 511.096 270.537 509.032 274.528 506.728L295.105 494.848C298.846 492.688 301.34 490.288 302.587 487.648C303.917 484.96 302.92 482.608 299.594 480.592L314.06 472.24C317.552 474.16 321.584 474.76 326.157 474.04C330.73 473.32 334.928 471.856 338.752 469.648L358.456 458.272C362.447 455.968 366.022 454.528 369.181 453.952C372.34 453.376 375.25 453.376 377.911 453.952C380.654 454.576 383.232 455.536 385.643 456.832C388.137 458.08 390.589 459.4 393 460.792L402.852 466.48L387.638 475.264L383.024 472.6ZM433.226 550.977C424.746 555.873 415.767 559.857 406.289 562.929C396.895 566.049 387.75 568.353 378.854 569.841C369.875 571.377 361.727 572.193 354.411 572.289L346.679 560.193C357.238 559.761 368.378 558.033 380.101 555.009C391.906 551.937 403.546 547.089 415.019 540.465C426.492 533.841 434.847 527.145 440.085 520.377C445.406 513.56 448.399 507.128 449.064 501.08L470.14 505.472C469.973 509.696 468.56 514.4 465.9 519.584C463.239 524.768 459.207 530.072 453.803 535.497C448.565 540.921 441.706 546.081 433.226 550.977Z" fill="#FAFAFA"/>
</g>
</g>
<defs>
<filter id="filter0_i_2027_158" x="166.191" y="410.503" width="404.845" height="202.423" filterUnits="userSpaceOnUse" color-interpolation-filters="sRGB">
<feFlood flood-opacity="0" result="BackgroundImageFix"/>
<feBlend mode="normal" in="SourceGraphic" in2="BackgroundImageFix" result="shape"/>
<feColorMatrix in="SourceAlpha" type="matrix" values="0 0 0 0 0 0 0 0 0 0 0 0 0 0 0 0 0 0 127 0" result="hardAlpha"/>
<feOffset dy="15.7463"/>
<feComposite in2="hardAlpha" operator="arithmetic" k2="-1" k3="1"/>
<feColorMatrix type="matrix" values="0 0 0 0 1 0 0 0 0 1 0 0 0 0 1 0 0 0 0.25 0"/>
<feBlend mode="normal" in2="shape" result="effect1_innerShadow_2027_158"/>
</filter>
<filter id="filter1_i_2027_158" x="166.191" y="410.503" width="404.845" height="202.423" filterUnits="userSpaceOnUse" color-interpolation-filters="sRGB">
<feFlood flood-opacity="0" result="BackgroundImageFix"/>
<feBlend mode="normal" in="SourceGraphic" in2="BackgroundImageFix" result="shape"/>
<feColorMatrix in="SourceAlpha" type="matrix" values="0 0 0 0 0 0 0 0 0 0 0 0 0 0 0 0 0 0 127 0" result="hardAlpha"/>
<feOffset dy="15.7463"/>
<feComposite in2="hardAlpha" operator="arithmetic" k2="-1" k3="1"/>
<feColorMatrix type="matrix" values="0 0 0 0 1 0 0 0 0 1 0 0 0 0 1 0 0 0 0.25 0"/>
<feBlend mode="normal" in2="shape" result="effect1_innerShadow_2027_158"/>
</filter>
<linearGradient id="paint0_linear_2027_158" x1="43" y1="510.001" x2="690" y2="833.001" gradientUnits="userSpaceOnUse">
<stop stop-color="#2A2042"/>
<stop offset="1" stop-color="#120B23" stop-opacity="0"/>
</linearGradient>
<linearGradient id="paint1_linear_2027_158" x1="0.0653307" y1="249.221" x2="178.823" y2="284.972" gradientUnits="userSpaceOnUse">
<stop stop-color="#6513F2"/>
<stop offset="1" stop-color="#02D1FF"/>
</linearGradient>
<linearGradient id="paint2_linear_2027_158" x1="368.497" y1="112.329" x2="368.208" y2="612.78" gradientUnits="userSpaceOnUse">
<stop stop-color="#02D1FF" stop-opacity="0"/>
<stop offset="1" stop-color="#02D1FF" stop-opacity="0.15"/>
</linearGradient>
</defs>
</svg>
