<svg width="414" height="73" viewBox="0 0 414 73" fill="none" xmlns="http://www.w3.org/2000/svg">
<path d="M0.144 72V0.959999H14.352V72H0.144ZM53.4593 72.48C49.5553 72.48 45.9073 72.16 42.5153 71.52C39.1233 70.816 36.1473 69.632 33.5873 67.968C31.0913 66.24 29.1393 63.872 27.7313 60.864C26.3873 57.792 25.7153 53.888 25.7153 49.152V0.959999H39.9233V49.056C39.9233 51.68 40.4353 53.76 41.4593 55.296C42.5473 56.832 44.0833 57.952 46.0673 58.656C48.1153 59.36 50.5793 59.712 53.4593 59.712C56.2753 59.712 58.6753 59.36 60.6593 58.656C62.7073 57.952 64.2433 56.832 65.2673 55.296C66.3553 53.76 66.8993 51.68 66.8993 49.056V0.959999H81.2033V49.152C81.2033 53.888 80.4993 57.792 79.0913 60.864C77.6833 63.872 75.7313 66.24 73.2353 67.968C70.7393 69.632 67.7953 70.816 64.4033 71.52C61.0753 72.16 57.4273 72.48 53.4593 72.48ZM92.4878 72V0.959999H121.864C124.68 0.959999 127.304 1.312 129.736 2.016C132.168 2.656 134.312 3.808 136.168 5.472C138.024 7.136 139.464 9.43999 140.488 12.384C141.576 15.328 142.12 19.104 142.12 23.712C142.12 26.976 141.8 29.76 141.16 32.064C140.52 34.368 139.656 36.256 138.568 37.728C137.544 39.2 136.36 40.384 135.016 41.28C133.672 42.176 132.296 42.912 130.888 43.488L144.136 72H129.64L118.216 45.696C117.448 45.696 116.552 45.696 115.528 45.696C114.568 45.632 113.576 45.6 112.552 45.6C111.528 45.6 110.504 45.6 109.48 45.6C108.456 45.6 107.528 45.568 106.696 45.504V72H92.4878ZM106.696 34.272H119.368C120.648 34.272 121.8 34.112 122.824 33.792C123.848 33.472 124.744 32.928 125.512 32.16C126.28 31.328 126.856 30.24 127.24 28.896C127.688 27.552 127.912 25.824 127.912 23.712C127.912 21.728 127.688 20.096 127.24 18.816C126.856 17.472 126.28 16.448 125.512 15.744C124.744 14.976 123.848 14.464 122.824 14.208C121.8 13.888 120.648 13.728 119.368 13.728H106.696V34.272ZM152.675 72V0.959999H166.883V72H152.675ZM203.111 72.576C198.951 72.576 195.271 72.096 192.071 71.136C188.935 70.176 186.247 68.416 184.007 65.856C181.831 63.296 180.167 59.648 179.015 54.912C177.927 50.112 177.383 43.904 177.383 36.288C177.383 28.928 177.959 22.912 179.111 18.24C180.327 13.504 182.055 9.856 184.295 7.296C186.535 4.672 189.255 2.848 192.455 1.824C195.655 0.799997 199.271 0.287996 203.303 0.287996C206.503 0.287996 209.479 0.479996 212.231 0.863995C215.047 1.18399 217.575 1.59999 219.815 2.112C222.055 2.56 223.943 3.072 225.479 3.648V14.688C224.326 14.432 222.759 14.176 220.775 13.92C218.855 13.664 216.647 13.472 214.151 13.344C211.655 13.152 209.031 13.056 206.279 13.056C203.591 13.056 201.287 13.376 199.367 14.016C197.511 14.592 196.007 15.712 194.855 17.376C193.767 18.976 192.935 21.312 192.359 24.384C191.847 27.456 191.591 31.456 191.591 36.384C191.591 41.12 191.815 45.024 192.263 48.096C192.775 51.168 193.575 53.568 194.663 55.296C195.751 56.96 197.223 58.144 199.079 58.848C200.999 59.488 203.399 59.808 206.279 59.808C211.143 59.808 215.079 59.712 218.087 59.52C221.159 59.328 223.623 59.104 225.479 58.848V69.792C223.751 70.368 221.767 70.88 219.527 71.328C217.287 71.712 214.823 72 212.135 72.192C209.447 72.448 206.439 72.576 203.111 72.576ZM261.975 72.576C257.111 72.576 252.855 72.128 249.207 71.232C245.559 70.272 242.487 68.544 239.991 66.048C237.559 63.488 235.735 59.84 234.519 55.104C233.303 50.368 232.695 44.192 232.695 36.576C232.695 28.96 233.303 22.784 234.519 18.048C235.799 13.248 237.655 9.568 240.087 7.008C242.519 4.448 245.559 2.688 249.207 1.72799C252.855 0.767996 257.111 0.287996 261.975 0.287996C266.839 0.287996 271.095 0.767996 274.743 1.72799C278.391 2.688 281.431 4.448 283.863 7.008C286.295 9.568 288.119 13.248 289.335 18.048C290.551 22.784 291.159 28.96 291.159 36.576C291.159 44.192 290.551 50.368 289.335 55.104C288.119 59.84 286.295 63.488 283.863 66.048C281.431 68.544 278.391 70.272 274.743 71.232C271.095 72.128 266.839 72.576 261.975 72.576ZM261.975 59.808C264.855 59.808 267.255 59.488 269.175 58.848C271.095 58.208 272.599 57.088 273.687 55.488C274.839 53.824 275.671 51.488 276.183 48.48C276.695 45.408 276.951 41.44 276.951 36.576C276.951 31.456 276.695 27.36 276.183 24.288C275.671 21.216 274.839 18.88 273.687 17.28C272.599 15.616 271.095 14.496 269.175 13.92C267.255 13.344 264.855 13.056 261.975 13.056C259.223 13.056 256.887 13.344 254.967 13.92C253.047 14.496 251.479 15.616 250.263 17.28C249.111 18.88 248.247 21.216 247.671 24.288C247.159 27.36 246.903 31.456 246.903 36.576C246.903 41.44 247.127 45.408 247.575 48.48C248.087 51.488 248.919 53.824 250.071 55.488C251.223 57.088 252.759 58.208 254.679 58.848C256.663 59.488 259.095 59.808 261.975 59.808ZM301.644 72V0.959999H331.692C336.492 0.959999 340.492 1.824 343.692 3.55199C346.892 5.216 349.42 7.648 351.276 10.848C353.196 13.984 354.54 17.728 355.308 22.08C356.076 26.432 356.46 31.232 356.46 36.48C356.46 44.48 355.532 51.104 353.676 56.352C351.884 61.6 349.164 65.536 345.516 68.16C341.868 70.72 337.26 72 331.692 72H301.644ZM315.852 59.232H330.252C333.196 59.232 335.532 58.4 337.26 56.736C338.988 55.008 340.236 52.448 341.004 49.056C341.836 45.664 342.252 41.472 342.252 36.48C342.252 31.872 341.996 28.096 341.484 25.152C340.972 22.144 340.204 19.808 339.18 18.144C338.22 16.48 336.972 15.328 335.436 14.688C333.964 14.048 332.236 13.728 330.252 13.728H315.852V59.232ZM384.174 72.48C382.638 72.48 380.878 72.32 378.894 72C376.91 71.744 374.99 71.104 373.134 70.08C371.342 69.056 369.838 67.52 368.622 65.472C367.47 63.36 366.894 60.48 366.894 56.832V17.184C366.894 14.048 367.374 11.424 368.334 9.31199C369.294 7.2 370.574 5.536 372.174 4.32C373.774 3.104 375.534 2.24 377.454 1.72799C379.374 1.216 381.262 0.959999 383.118 0.959999C387.918 0.959999 392.142 1.024 395.79 1.152C399.502 1.27999 402.83 1.43999 405.774 1.632C408.718 1.76 411.406 1.952 413.838 2.20799V14.112H387.342C385.358 14.112 383.822 14.592 382.734 15.552C381.646 16.512 381.102 17.984 381.102 19.968V30.24L409.23 31.008V42.24L381.102 43.008V52.8C381.102 54.464 381.358 55.776 381.87 56.736C382.446 57.632 383.182 58.272 384.078 58.656C385.038 58.976 386.03 59.136 387.054 59.136H413.838V71.04C411.022 71.36 407.886 71.616 404.43 71.808C401.038 72 397.582 72.16 394.062 72.288C390.606 72.416 387.31 72.48 384.174 72.48Z" fill="white"/>
</svg>
