<svg width="67" height="61" viewBox="0 0 67 61" fill="none" xmlns="http://www.w3.org/2000/svg">
<path d="M18.41 8.465C17.5 8.465 16.785 8.595 16.265 8.855C15.7883 9.115 15.4417 9.7 15.225 10.61C15.0517 11.52 14.965 12.9717 14.965 14.965V21.335C14.965 22.9817 14.705 24.4117 14.185 25.625C13.7083 26.795 13.145 27.7483 12.495 28.485C11.845 29.2217 11.2383 29.785 10.675 30.175C11.1517 30.5217 11.715 31.0633 12.365 31.8C13.0583 32.4933 13.665 33.36 14.185 34.4C14.705 35.3967 14.965 36.5233 14.965 37.78V45.58C14.965 47.53 15.0517 48.96 15.225 49.87C15.4417 50.78 15.7883 51.365 16.265 51.625C16.785 51.885 17.5 52.015 18.41 52.015H20.815V59.945H15.68C14.4667 59.945 13.2533 59.9233 12.04 59.88C10.87 59.8367 9.78667 59.5983 8.79 59.165C7.79333 58.775 6.99167 58.0167 6.385 56.89C5.82167 55.8067 5.54 54.225 5.54 52.145V41.42C5.54 39.47 5.10667 37.7367 4.24 36.22C3.37333 34.66 2.05167 33.8583 0.275 33.815V26.275C2.05167 26.2317 3.37333 25.4517 4.24 23.935C5.10667 22.4183 5.54 20.6633 5.54 18.67V8.4C5.54 6.32 5.82167 4.73833 6.385 3.655C6.94833 2.57166 7.70667 1.81333 8.66 1.38C9.65667 0.946665 10.7617 0.708331 11.975 0.664996C13.1883 0.57833 14.4233 0.534998 15.68 0.534998H20.815V8.465H18.41ZM66.8716 30.76C66.8716 35.18 66.3299 39.3183 65.2466 43.175C64.2066 47.0317 62.8632 50.455 61.2166 53.445C59.5699 56.4783 57.8149 58.97 55.9516 60.92L48.4766 57.475C51.0332 54.5283 53.1566 50.845 54.8466 46.425C56.5366 41.9617 57.3816 36.74 57.3816 30.76C57.3816 24.78 56.5366 19.58 54.8466 15.16C53.1566 10.6967 51.0332 7.01333 48.4766 4.11L55.9516 0.599997C57.8149 2.55 59.5699 5.04166 61.2166 8.075C62.8632 11.1083 64.2066 14.5533 65.2466 18.41C66.3299 22.2233 66.8716 26.34 66.8716 30.76Z" fill="#6610F2"/>
</svg>
