<svg width="440" height="100" viewBox="0 0 440 100" fill="none" xmlns="http://www.w3.org/2000/svg">
<path d="M49.9997 79.1673L20.833 50.0007L49.9997 20.834" stroke="#6610F2" stroke-width="6" stroke-linecap="round" stroke-linejoin="round"/>
<g clip-path="url(#clip0)">
<path d="M390 20.8327L419.167 49.9993L390 79.166" stroke="#6610F2" stroke-width="6" stroke-linecap="round" stroke-linejoin="round"/>
<path d="M341.26 77.24L370.1 19H377.03L348.26 77.24H341.26Z" fill="#6610F2"/>
</g>
<path d="M86.1023 32.0909H80.8352V67H86.1023V32.0909ZM116.222 32.0909V54.625C116.222 59.3636 112.949 62.7727 107.631 62.7727C102.33 62.7727 99.0398 59.3636 99.0398 54.625V32.0909H93.7727V55.0511C93.7727 62.3807 99.2614 67.5795 107.631 67.5795C116 67.5795 121.506 62.3807 121.506 55.0511V32.0909H116.222ZM129.163 67H134.43V53.7898H141.589C141.709 53.7898 141.811 53.7898 141.93 53.7898L149.021 67H155.021L147.283 52.8693C151.561 51.2841 153.692 47.7216 153.692 43.0341C153.692 36.608 149.703 32.0909 141.607 32.0909H129.163V67ZM134.43 49.2557V36.608H141.044C146.243 36.608 148.391 39.0795 148.391 43.0341C148.391 46.9716 146.243 49.2557 141.112 49.2557H134.43ZM165.368 32.0909H160.101V67H165.368V32.0909ZM202.033 43.4432C200.839 35.9773 194.993 31.6136 187.612 31.6136C178.578 31.6136 171.913 38.3807 171.913 49.5455C171.913 60.7102 178.544 67.4773 187.612 67.4773C195.283 67.4773 200.891 62.6705 202.033 55.767L196.714 55.75C195.811 60.2159 192.061 62.6705 187.646 62.6705C181.663 62.6705 177.146 58.0852 177.146 49.5455C177.146 41.0739 181.646 36.4205 187.663 36.4205C192.112 36.4205 195.845 38.9261 196.714 43.4432H202.033ZM238.659 49.5455C238.659 38.3807 231.977 31.6136 222.943 31.6136C213.875 31.6136 207.21 38.3807 207.21 49.5455C207.21 60.6932 213.875 67.4773 222.943 67.4773C231.977 67.4773 238.659 60.7102 238.659 49.5455ZM233.443 49.5455C233.443 58.0511 228.943 62.6705 222.943 62.6705C216.926 62.6705 212.443 58.0511 212.443 49.5455C212.443 41.0398 216.926 36.4205 222.943 36.4205C228.943 36.4205 233.443 41.0398 233.443 49.5455ZM256.527 67C267.163 67 273.317 60.4034 273.317 49.4943C273.317 38.6364 267.163 32.0909 256.885 32.0909H245.226V67H256.527ZM250.493 62.3977V36.6932H256.561C264.197 36.6932 268.135 41.2614 268.135 49.4943C268.135 57.7614 264.197 62.3977 256.237 62.3977H250.493ZM279.866 67H301.957V62.4659H285.134V51.7784H300.611V47.2614H285.134V36.625H301.753V32.0909H279.866V67Z" fill="white"/>
<defs>
<clipPath id="clip0">
<rect width="100" height="100" fill="white" transform="translate(440 100) rotate(-180)"/>
</clipPath>
</defs>
</svg>
