<svg width="495" height="72" viewBox="0 0 495 72" fill="none" xmlns="http://www.w3.org/2000/svg">
<path d="M0.175781 7.44922C0.175781 6.72266 0.357422 6.05664 0.720703 5.45117C1.08398 4.80534 1.58854 4.26042 2.23438 3.81641C2.88021 3.33203 3.62695 2.94857 4.47461 2.66602C5.36263 2.38346 6.29102 2.24219 7.25977 2.24219C9.1569 2.24219 10.5495 2.54492 11.4375 3.15039C12.3255 3.75586 12.8704 4.70443 13.0723 5.99609C13.7585 11.3646 14.3236 16.4505 14.7676 21.2539C15.252 26.0169 15.6354 30.5781 15.918 34.9375C16.2005 39.2565 16.4023 43.4141 16.5234 47.4102C16.6445 51.3659 16.7051 55.2005 16.7051 58.9141C16.7051 60.9323 15.9785 62.446 14.5254 63.4551C13.1126 64.4642 11.0339 64.9688 8.28906 64.9688C7.03776 64.9688 6.04883 64.666 5.32227 64.0605C4.63607 63.4954 4.29297 62.6478 4.29297 61.5176C4.29297 54.5749 4.07096 48.0762 3.62695 42.0215C3.22331 35.9264 2.75911 30.5176 2.23438 25.7949C1.70964 21.0723 1.22526 17.1367 0.78125 13.9883C0.377604 10.7995 0.175781 8.61979 0.175781 7.44922ZM29.4805 14.1699C29.7227 12.7572 30.4089 11.7077 31.5391 11.0215C32.6693 10.2949 34.5462 9.93164 37.1699 9.93164C38.5827 9.93164 39.6725 10.2949 40.4395 11.0215C41.2467 11.748 41.6504 12.7572 41.6504 14.0488C41.6504 14.2507 41.6302 14.4323 41.5898 14.5938C41.5495 14.7552 41.5293 14.9368 41.5293 15.1387C41.0853 17.7624 40.722 20.487 40.4395 23.3125C40.1569 26.138 40.0156 29.0039 40.0156 31.9102C40.0156 35.6641 40.3385 39.2161 40.9844 42.5664C41.6706 45.8763 42.8613 48.7826 44.5566 51.2852C46.2923 53.7474 48.6335 55.7051 51.5801 57.1582C54.5671 58.571 58.3613 59.2773 62.9629 59.2773C65.5462 59.2773 67.8268 58.8132 69.8047 57.8848C71.7826 56.9564 73.4173 55.6849 74.709 54.0703C76.041 52.4154 77.0299 50.4779 77.6758 48.2578C78.362 46.0378 78.7051 43.6361 78.7051 41.0527C78.7051 38.4694 78.4225 35.9264 77.8574 33.4238C77.3327 30.9212 76.6061 28.459 75.6777 26.0371C74.7897 23.5749 73.7402 21.153 72.5293 18.7715C71.3587 16.39 70.1074 13.9883 68.7754 11.5664C68.2103 10.4766 67.9277 9.48763 67.9277 8.59961C67.9277 7.02539 68.7552 5.69336 70.4102 4.60352L72.8926 2.96875C73.9824 2.24219 75.0117 1.87891 75.9805 1.87891C77.474 1.87891 78.7253 2.78711 79.7344 4.60352C81.2682 7.30794 82.7415 10.0527 84.1543 12.8379C85.5671 15.5827 86.7982 18.4082 87.8477 21.3145C88.9375 24.2207 89.7852 27.2279 90.3906 30.3359C91.0365 33.4036 91.3594 36.5723 91.3594 39.8418C91.3594 44.403 90.5924 48.5605 89.0586 52.3145C87.5651 56.0684 85.4258 59.2975 82.6406 62.002C79.8555 64.666 76.5052 66.7246 72.5898 68.1777C68.7148 69.6712 64.3958 70.418 59.6328 70.418C54.4661 70.418 49.8646 69.5098 45.8281 67.6934C41.832 65.9173 38.4616 63.4551 35.7168 60.3066C32.972 57.1178 30.8932 53.3639 29.4805 49.0449C28.0677 44.6855 27.3613 39.9629 27.3613 34.877C27.3613 31.3249 27.5632 27.7728 27.9668 24.2207C28.4108 20.6283 28.9154 17.278 29.4805 14.1699ZM117.576 18.1055C116.769 18.4284 115.982 18.5898 115.215 18.5898C113.277 18.5898 111.945 17.4395 111.219 15.1387C111.017 14.5332 110.876 14.0286 110.795 13.625C110.755 13.2214 110.734 12.8581 110.734 12.5352C110.734 10.638 111.804 9.22526 113.943 8.29688C118.182 6.60156 122.501 5.22917 126.9 4.17969C131.3 3.13021 135.74 2.60547 140.221 2.60547C142.32 2.60547 144.378 2.82747 146.396 3.27148C148.455 3.71549 150.292 4.48242 151.906 5.57227C153.521 6.66211 154.833 8.11523 155.842 9.93164C156.851 11.748 157.355 14.0286 157.355 16.7734C157.355 18.7109 156.952 20.5677 156.145 22.3438C155.378 24.1198 154.348 25.8151 153.057 27.4297C151.765 29.0443 150.292 30.5781 148.637 32.0312C146.982 33.4844 145.286 34.8164 143.551 36.0273C141.815 37.2383 140.1 38.3483 138.404 39.3574C136.709 40.3262 135.175 41.1738 133.803 41.9004C132.632 42.5866 132.047 43.293 132.047 44.0195C132.047 44.8672 132.673 45.5332 133.924 46.0176C138.243 47.5514 142.663 48.9844 147.184 50.3164C151.704 51.6484 156.286 53.1419 160.928 54.7969C163.107 55.6042 164.197 56.8555 164.197 58.5508C164.197 59.3581 163.955 60.1855 163.471 61.0332C163.027 61.8405 162.522 62.5872 161.957 63.2734C160.786 65.0091 159.333 65.877 157.598 65.877C156.992 65.877 156.245 65.7559 155.357 65.5137C152.734 64.5046 149.908 63.4551 146.881 62.3652C143.894 61.2754 140.826 60.2057 137.678 59.1562C134.57 58.0664 131.502 57.0371 128.475 56.0684C125.447 55.0592 122.642 54.151 120.059 53.3438C119.13 53.1016 118.505 52.9805 118.182 52.9805C117.859 52.9805 117.596 53.0612 117.395 53.2227C117.233 53.3438 117.152 53.6263 117.152 54.0703C117.152 54.1914 117.173 54.3529 117.213 54.5547C117.253 54.7161 117.273 54.8978 117.273 55.0996C117.395 55.7051 117.536 56.5124 117.697 57.5215C117.899 58.4902 118.081 59.4993 118.242 60.5488C118.444 61.5983 118.605 62.6074 118.727 63.5762C118.848 64.5046 118.908 65.2715 118.908 65.877C118.908 68.1374 117.677 69.7116 115.215 70.5996L112.49 71.4473C112.087 71.5684 111.723 71.6491 111.4 71.6895C111.077 71.7702 110.734 71.8105 110.371 71.8105C108.151 71.8105 106.859 70.4382 106.496 67.6934C105.527 60.347 104.276 53.1016 102.742 45.957C101.249 38.8125 99.5332 31.6882 97.5957 24.584C97.4746 24.1803 97.3939 23.8372 97.3535 23.5547C97.3535 23.2318 97.3535 22.9492 97.3535 22.707C97.3535 20.5677 98.5039 19.1146 100.805 18.3477C101.652 18.0651 102.339 17.8431 102.863 17.6816C103.428 17.5202 103.872 17.3991 104.195 17.3184C104.559 17.1973 104.821 17.1165 104.982 17.0762C105.184 17.0358 105.366 17.0156 105.527 17.0156C107.707 17.0156 109.12 18.2467 109.766 20.709C110.613 23.8574 111.4 26.9049 112.127 29.8516C112.894 32.7982 113.58 35.7044 114.186 38.5703C114.508 39.9831 115.094 40.6895 115.941 40.6895C116.184 40.6895 116.466 40.6491 116.789 40.5684C117.112 40.4473 117.495 40.2858 117.939 40.084C119.231 39.3978 120.785 38.5501 122.602 37.541C124.458 36.5319 126.376 35.4219 128.354 34.2109C130.372 32.9596 132.35 31.6478 134.287 30.2754C136.265 28.903 138.021 27.5306 139.555 26.1582C141.129 24.7858 142.4 23.4336 143.369 22.1016C144.338 20.7695 144.822 19.5182 144.822 18.3477C144.822 17.6211 144.701 16.9551 144.459 16.3496C144.257 15.7441 143.854 15.2194 143.248 14.7754C142.643 14.3314 141.815 13.9883 140.766 13.7461C139.757 13.5039 138.465 13.3828 136.891 13.3828C135.357 13.3828 133.742 13.5241 132.047 13.8066C130.392 14.0488 128.737 14.3919 127.082 14.8359C125.427 15.2799 123.792 15.7845 122.178 16.3496C120.563 16.9147 119.029 17.5 117.576 18.1055ZM166.559 7.44922C166.559 6.72266 166.74 6.05664 167.104 5.45117C167.467 4.80534 167.971 4.26042 168.617 3.81641C169.263 3.33203 170.01 2.94857 170.857 2.66602C171.745 2.38346 172.674 2.24219 173.643 2.24219C175.54 2.24219 176.932 2.54492 177.82 3.15039C178.708 3.75586 179.253 4.70443 179.455 5.99609C180.141 11.3646 180.706 16.4505 181.15 21.2539C181.635 26.0169 182.018 30.5781 182.301 34.9375C182.583 39.2565 182.785 43.4141 182.906 47.4102C183.027 51.3659 183.088 55.2005 183.088 58.9141C183.088 60.9323 182.361 62.446 180.908 63.4551C179.495 64.4642 177.417 64.9688 174.672 64.9688C173.421 64.9688 172.432 64.666 171.705 64.0605C171.019 63.4954 170.676 62.6478 170.676 61.5176C170.676 54.5749 170.454 48.0762 170.01 42.0215C169.606 35.9264 169.142 30.5176 168.617 25.7949C168.092 21.0723 167.608 17.1367 167.164 13.9883C166.76 10.7995 166.559 8.61979 166.559 7.44922ZM220.688 11.2031C218.427 11.2031 216.328 11.748 214.391 12.8379C212.493 13.8874 210.818 15.3607 209.365 17.2578C207.952 19.1146 206.842 21.3145 206.035 23.8574C205.228 26.4004 204.824 29.125 204.824 32.0312C204.824 35.0182 205.49 37.7832 206.822 40.3262C208.195 42.8288 210.072 45.0286 212.453 46.9258C214.875 48.7826 217.701 50.2357 220.93 51.2852C224.199 52.3346 227.751 52.8594 231.586 52.8594C234.371 52.8594 236.995 52.6172 239.457 52.1328C241.96 51.6081 244.139 50.9219 245.996 50.0742C247.853 49.2266 249.326 48.2376 250.416 47.1074C251.506 45.9368 252.051 44.7057 252.051 43.4141C252.051 42.4049 251.869 41.5775 251.506 40.9316C251.143 40.2454 250.719 39.64 250.234 39.1152C249.79 38.5501 249.387 38.0052 249.023 37.4805C248.66 36.9154 248.479 36.209 248.479 35.3613C248.479 34.554 248.68 33.7871 249.084 33.0605C249.488 32.334 250.033 31.6882 250.719 31.123C251.445 30.5579 252.253 30.1139 253.141 29.791C254.069 29.4681 255.018 29.3066 255.986 29.3066C257.157 29.3066 258.247 29.6094 259.256 30.2148C260.305 30.8203 261.193 31.668 261.92 32.7578C262.687 33.8073 263.272 35.0586 263.676 36.5117C264.12 37.9245 264.342 39.4382 264.342 41.0527C264.342 44.3223 263.474 47.3698 261.738 50.1953C260.003 52.9805 257.601 55.3822 254.533 57.4004C251.465 59.4186 247.833 61.013 243.635 62.1836C239.437 63.3138 234.876 63.8789 229.951 63.8789C224.502 63.8789 219.477 63.1523 214.875 61.6992C210.273 60.2057 206.298 58.1471 202.947 55.5234C199.637 52.8997 197.054 49.7917 195.197 46.1992C193.34 42.6068 192.412 38.6712 192.412 34.3926C192.412 29.7103 193.219 25.2904 194.834 21.1328C196.489 16.9753 198.729 13.3424 201.555 10.2344C204.38 7.1263 207.67 4.66406 211.424 2.84766C215.218 1.03125 219.255 0.123047 223.533 0.123047C225.43 0.123047 227.166 0.345052 228.74 0.789062C230.355 1.19271 231.747 1.77799 232.918 2.54492C234.089 3.31185 234.997 4.22005 235.643 5.26953C236.329 6.27865 236.672 7.38867 236.672 8.59961C236.672 9.56836 236.45 10.4967 236.006 11.3848C235.602 12.2324 235.057 12.9993 234.371 13.6855C233.685 14.3314 232.878 14.8561 231.949 15.2598C231.061 15.6634 230.113 15.8652 229.104 15.8652C228.054 15.8652 227.206 15.623 226.561 15.1387C225.955 14.6543 225.39 14.1296 224.865 13.5645C224.34 12.959 223.775 12.4141 223.17 11.9297C222.564 11.4453 221.737 11.2031 220.688 11.2031ZM290.982 71.5684C286.583 71.5684 282.526 70.8216 278.812 69.3281C275.139 67.8346 271.971 65.7559 269.307 63.0918C266.643 60.3874 264.564 57.1784 263.07 53.4648C261.577 49.7513 260.83 45.6543 260.83 41.1738C260.83 38.752 261.032 36.431 261.436 34.2109C261.88 31.9505 262.465 29.8516 263.191 27.9141C263.514 27.1471 263.676 26.6022 263.676 26.2793C263.676 25.8757 263.575 25.4922 263.373 25.1289C263.171 24.7656 262.949 24.3822 262.707 23.9785C262.465 23.5749 262.243 23.151 262.041 22.707C261.839 22.263 261.738 21.7585 261.738 21.1934C261.738 19.498 262.707 17.8431 264.645 16.2285C266.582 14.5736 269.145 13.1204 272.334 11.8691C275.523 10.5775 279.135 9.54818 283.172 8.78125C287.208 7.97396 291.346 7.57031 295.584 7.57031C300.791 7.57031 305.473 8.23633 309.631 9.56836C313.829 10.9004 317.381 12.8177 320.287 15.3203C323.234 17.7826 325.494 20.7897 327.068 24.3418C328.643 27.8939 329.43 31.89 329.43 36.3301C329.43 41.2949 328.441 45.9368 326.463 50.2559C324.485 54.5345 321.76 58.248 318.289 61.3965C314.858 64.5449 310.801 67.0273 306.119 68.8438C301.437 70.6602 296.391 71.5684 290.982 71.5684ZM317.26 38.6914C317.26 35.543 316.715 32.7174 315.625 30.2148C314.535 27.7122 312.961 25.6133 310.902 23.918C308.844 22.1823 306.301 20.8704 303.273 19.9824C300.286 19.054 296.896 18.5898 293.102 18.5898C286.441 18.5898 281.416 20.2852 278.025 23.6758C274.675 27.026 273 32.0312 273 38.6914C273 41.9206 273.505 44.8874 274.514 47.5918C275.523 50.2559 276.936 52.5566 278.752 54.4941C280.568 56.3913 282.728 57.8848 285.23 58.9746C287.773 60.0241 290.559 60.5488 293.586 60.5488C297.057 60.5488 300.246 60.0241 303.152 58.9746C306.059 57.8848 308.541 56.3711 310.6 54.4336C312.699 52.4961 314.333 50.1953 315.504 47.5312C316.674 44.8268 317.26 41.8802 317.26 38.6914ZM331.246 17.7422C330.721 17.8229 330.277 17.8835 329.914 17.9238C329.551 17.9642 329.248 17.9844 329.006 17.9844C327.633 17.9036 326.665 17.5202 326.1 16.834C325.535 16.1074 325.252 14.9167 325.252 13.2617C325.252 9.99219 326.826 7.93359 329.975 7.08594C332.76 6.4401 335.747 5.97591 338.936 5.69336C342.124 5.37044 345.676 5.20898 349.592 5.20898C354.839 5.20898 360.046 5.71354 365.213 6.72266C370.42 7.73177 375.365 9.12435 380.047 10.9004C384.77 12.6361 389.149 14.7148 393.186 17.1367C397.222 19.5182 400.714 22.1217 403.66 24.9473C406.647 27.7324 408.968 30.679 410.623 33.7871C412.318 36.8548 413.166 39.9427 413.166 43.0508C413.166 46.1992 412.096 49.2064 409.957 52.0723C407.858 54.8978 405.012 57.4004 401.42 59.5801C397.827 61.7598 393.67 63.4954 388.947 64.7871C384.225 66.0788 379.28 66.7246 374.113 66.7246C369.996 66.7246 365.697 66.3411 361.217 65.5742C356.736 64.8073 351.792 63.5762 346.383 61.8809C343.88 61.1947 342.629 59.6608 342.629 57.2793C342.629 56.7546 342.75 56.2702 342.992 55.8262C343.234 55.3822 343.477 54.9583 343.719 54.5547C344.001 54.151 344.264 53.7676 344.506 53.4043C344.748 53.0007 344.869 52.597 344.869 52.1934C344.869 49.8926 344.748 47.4303 344.506 44.8066C344.304 42.1829 344.001 39.5592 343.598 36.9355C343.234 34.3118 342.79 31.8092 342.266 29.4277C341.781 27.0059 341.277 24.8665 340.752 23.0098C340.227 21.153 339.682 19.6797 339.117 18.5898C338.592 17.4596 338.108 16.8945 337.664 16.8945C336.978 16.8945 336.13 16.9753 335.121 17.1367C334.152 17.2982 332.861 17.5 331.246 17.7422ZM354.557 16.7734C353.386 16.7734 352.801 17.1771 352.801 17.9844C352.801 18.1862 352.861 18.5293 352.982 19.0137C353.104 19.498 353.285 20.265 353.527 21.3145C353.891 23.0098 354.234 24.8262 354.557 26.7637C354.88 28.7012 355.202 30.8809 355.525 33.3027C355.848 35.6842 356.151 38.3685 356.434 41.3555C356.757 44.3021 357.079 47.6322 357.402 51.3457C357.443 51.9512 357.988 52.5365 359.037 53.1016C360.087 53.6263 361.479 54.1107 363.215 54.5547C364.951 54.9583 366.928 55.3014 369.148 55.584C371.409 55.8262 373.73 55.9473 376.111 55.9473C379.26 55.9473 382.267 55.584 385.133 54.8574C388.039 54.0905 390.582 53.0814 392.762 51.8301C394.982 50.5788 396.738 49.1257 398.029 47.4707C399.361 45.8158 400.027 44.1003 400.027 42.3242C400.027 39.3776 398.857 36.5117 396.516 33.7266C394.215 30.9414 391.026 28.4186 386.949 26.1582C382.872 23.8574 378.069 21.8997 372.539 20.2852C367.009 18.6302 361.015 17.4596 354.557 16.7734ZM422.672 49.1055C422.551 49.1055 422.349 49.1257 422.066 49.166C421.824 49.2064 421.542 49.2467 421.219 49.2871C420.936 49.3275 420.654 49.3678 420.371 49.4082C420.089 49.4486 419.867 49.4688 419.705 49.4688C418.575 49.4688 417.586 49.0046 416.738 48.0762C415.891 47.1074 415.467 45.8359 415.467 44.2617C415.467 43.2122 415.81 42.2031 416.496 41.2344C417.182 40.2656 418.252 39.4583 419.705 38.8125C420.149 38.6107 420.492 38.3887 420.734 38.1465C421.017 37.8639 421.158 37.4805 421.158 36.9961C421.158 35.7044 421.118 34.332 421.037 32.8789C420.997 31.3854 420.916 29.6497 420.795 27.6719C420.755 27.2682 420.613 26.8848 420.371 26.5215C420.169 26.1582 419.927 25.7546 419.645 25.3105C419.402 24.8262 419.18 24.3014 418.979 23.7363C418.777 23.1712 418.676 22.4648 418.676 21.6172C418.676 20.8503 418.777 19.9824 418.979 19.0137C419.221 18.0046 419.685 17.0762 420.371 16.2285C421.098 15.3405 422.087 14.6139 423.338 14.0488C424.63 13.4434 426.305 13.1406 428.363 13.1406C429.211 13.1406 429.917 13.2214 430.482 13.3828C431.048 13.5443 431.532 13.7461 431.936 13.9883C432.38 14.1901 432.763 14.3717 433.086 14.5332C433.449 14.6947 433.812 14.7754 434.176 14.7754C434.822 14.7754 436.113 14.6543 438.051 14.4121C439.988 14.1699 442.309 13.8268 445.014 13.3828C447.758 12.9388 450.766 12.4342 454.035 11.8691C457.345 11.304 460.695 10.6986 464.086 10.0527C467.477 9.36654 470.786 8.68034 474.016 7.99414C477.245 7.30794 480.171 6.64193 482.795 5.99609C483.602 5.79427 484.309 5.69336 484.914 5.69336C485.762 5.69336 486.428 5.89518 486.912 6.29883C487.437 6.66211 487.82 7.1263 488.062 7.69141C488.305 8.25651 488.446 8.90234 488.486 9.62891C488.567 10.3151 488.607 10.9609 488.607 11.5664C488.607 12.6159 488.244 13.6048 487.518 14.5332C486.831 15.4212 485.681 16.1276 484.066 16.6523C480.07 17.8229 476.034 18.8522 471.957 19.7402C467.921 20.5879 463.844 21.375 459.727 22.1016C455.609 22.7878 451.472 23.4134 447.314 23.9785C443.157 24.5436 439.02 25.1087 434.902 25.6738C434.337 25.7546 433.913 25.9766 433.631 26.3398C433.348 26.6628 433.207 27.1068 433.207 27.6719V30.1543C433.207 30.8405 433.227 31.5469 433.268 32.2734C433.308 33 433.389 33.666 433.51 34.2715C433.671 34.877 433.873 35.3815 434.115 35.7852C434.357 36.1484 434.68 36.3301 435.084 36.3301C436.053 36.3301 437.546 36.1283 439.564 35.7246C441.623 35.321 443.924 34.8366 446.467 34.2715C449.05 33.666 451.734 33.0202 454.52 32.334C457.345 31.6074 460.009 30.9616 462.512 30.3965C465.014 29.791 467.214 29.2865 469.111 28.8828C471.008 28.4792 472.34 28.2773 473.107 28.2773C474.238 28.2773 475.085 28.7012 475.65 29.5488C476.256 30.3561 476.66 31.3854 476.861 32.6367C476.861 32.8385 476.882 33.0202 476.922 33.1816C476.962 33.3431 476.982 33.5247 476.982 33.7266C476.982 34.8971 476.619 35.987 475.893 36.9961C475.206 37.9648 473.955 38.6914 472.139 39.1758C471.654 39.3372 470.686 39.5996 469.232 39.9629C467.779 40.2858 466.064 40.6895 464.086 41.1738C462.108 41.6178 459.969 42.1022 457.668 42.627C455.367 43.1517 453.107 43.6764 450.887 44.2012C448.667 44.6855 446.588 45.1699 444.65 45.6543C442.753 46.0983 441.199 46.4616 439.988 46.7441C438.898 47.0267 438.232 47.2487 437.99 47.4102C437.788 47.5716 437.688 47.7734 437.688 48.0156C437.768 48.9036 438.212 49.7311 439.02 50.498C439.867 51.265 440.917 51.9714 442.168 52.6172C443.46 53.263 444.893 53.8483 446.467 54.373C448.081 54.8978 449.736 55.3418 451.432 55.7051C453.167 56.028 454.863 56.2904 456.518 56.4922C458.173 56.694 459.706 56.7949 461.119 56.7949C461.725 56.7949 462.592 56.7949 463.723 56.7949C464.853 56.7949 466.084 56.7747 467.416 56.7344C468.788 56.6536 470.181 56.5527 471.594 56.4316C473.047 56.3105 474.339 56.1491 475.469 55.9473C476.639 55.7051 477.588 55.4225 478.314 55.0996C479.081 54.7363 479.465 54.3125 479.465 53.8281C479.465 53.3841 479.303 52.9199 478.98 52.4355C478.698 51.9512 478.557 51.4264 478.557 50.8613C478.557 50.054 478.779 49.2669 479.223 48.5C479.667 47.6927 480.232 46.9863 480.918 46.3809C481.645 45.735 482.452 45.2305 483.34 44.8672C484.268 44.4635 485.197 44.2617 486.125 44.2617C487.296 44.2617 488.365 44.5039 489.334 44.9883C490.303 45.4323 491.13 46.0378 491.816 46.8047C492.543 47.5312 493.088 48.3789 493.451 49.3477C493.855 50.3164 494.057 51.3053 494.057 52.3145C494.057 54.9785 493.068 57.2793 491.09 59.2168C489.152 61.1543 486.609 62.7487 483.461 64C480.312 65.2917 476.76 66.2402 472.805 66.8457C468.849 67.4915 464.873 67.8145 460.877 67.8145C456.195 67.8145 451.916 67.4915 448.041 66.8457C444.166 66.2402 440.695 65.2513 437.627 63.8789C434.559 62.5065 431.915 60.7305 429.695 58.5508C427.475 56.3307 425.659 53.6465 424.246 50.498C423.762 49.5697 423.237 49.1055 422.672 49.1055Z" fill="white"/>
</svg>
