<svg width="361" height="61" viewBox="0 0 361 61" fill="none" xmlns="http://www.w3.org/2000/svg">
<path d="M6.08 4.896H15.36V52H6.08V4.896ZM35.8375 34.592C35.8375 36.0853 36.2855 37.5147 37.1815 38.88C38.0775 40.2453 39.2508 41.3547 40.7015 42.208C42.1948 43.0613 43.8162 43.488 45.5655 43.488C47.4855 43.488 49.1922 43.0613 50.6855 42.208C52.1788 41.3547 53.3522 40.2453 54.2055 38.88C55.1015 37.5147 55.5495 36.0853 55.5495 34.592V4.896H64.7015V34.784C64.7015 38.24 63.8482 41.312 62.1415 44C60.4348 46.6453 58.1308 48.736 55.2295 50.272C52.3282 51.7653 49.1068 52.512 45.5655 52.512C42.0668 52.512 38.8668 51.7653 35.9655 50.272C33.1068 48.736 30.8242 46.6453 29.1175 44C27.4108 41.312 26.5575 38.24 26.5575 34.784V4.896H35.8375V34.592ZM90.1645 4.896C96.0952 4.896 100.639 6.34666 103.797 9.248C106.997 12.1067 108.597 15.9467 108.597 20.768C108.597 23.456 108.021 26.1013 106.869 28.704C105.759 31.3067 103.861 33.376 101.173 34.912L112.117 52H101.301L91.3805 37.024H85.1725V52H75.8925V4.896H90.1645ZM91.7645 28.064C93.6418 28.064 95.0925 27.68 96.1165 26.912C97.1832 26.1013 97.9298 25.1627 98.3565 24.096C98.7832 22.9867 98.9965 21.984 98.9965 21.088C98.9965 20.576 98.9112 19.936 98.7405 19.168C98.6125 18.3573 98.3138 17.5467 97.8445 16.736C97.3752 15.9253 96.6498 15.2427 95.6685 14.688C94.7298 14.1333 93.4498 13.856 91.8285 13.856H85.1725V28.064H91.7645ZM119.768 4.896H129.048V52H119.768V4.896ZM176.533 48.096C176.021 48.5227 175.061 49.0987 173.653 49.824C172.288 50.5493 170.602 51.1893 168.597 51.744C166.592 52.2987 164.373 52.5547 161.941 52.512C158.229 52.4267 154.901 51.7653 151.957 50.528C149.056 49.248 146.581 47.52 144.533 45.344C142.528 43.168 140.992 40.672 139.925 37.856C138.858 35.04 138.325 32.032 138.325 28.832C138.325 24.0533 139.285 19.8293 141.205 16.16C143.125 12.4907 145.792 9.61066 149.205 7.52C152.661 5.42933 156.672 4.384 161.237 4.384C164.394 4.384 167.189 4.81067 169.621 5.664C172.053 6.51733 174.037 7.43466 175.573 8.416L171.925 17.184C170.858 16.3733 169.429 15.5413 167.637 14.688C165.888 13.792 163.861 13.344 161.557 13.344C159.168 13.344 156.928 14.0053 154.837 15.328C152.789 16.6507 151.125 18.4427 149.845 20.704C148.608 22.9227 147.989 25.4613 147.989 28.32C147.989 31.3493 148.565 34.016 149.717 36.32C150.869 38.5813 152.512 40.352 154.645 41.632C156.778 42.912 159.274 43.552 162.133 43.552C164.65 43.552 166.805 43.1467 168.597 42.336C170.389 41.5253 171.754 40.672 172.693 39.776L176.533 48.096ZM182.95 28.512C182.95 25.2693 183.569 22.1973 184.806 19.296C186.043 16.3947 187.75 13.8347 189.926 11.616C192.145 9.35467 194.705 7.584 197.606 6.304C200.507 5.024 203.622 4.384 206.95 4.384C210.235 4.384 213.329 5.024 216.23 6.304C219.131 7.584 221.691 9.35467 223.91 11.616C226.171 13.8347 227.921 16.3947 229.158 19.296C230.438 22.1973 231.078 25.2693 231.078 28.512C231.078 31.84 230.438 34.9547 229.158 37.856C227.921 40.7573 226.171 43.3173 223.91 45.536C221.691 47.712 219.131 49.4187 216.23 50.656C213.329 51.8933 210.235 52.512 206.95 52.512C203.622 52.512 200.507 51.8933 197.606 50.656C194.705 49.4187 192.145 47.712 189.926 45.536C187.75 43.3173 186.043 40.7573 184.806 37.856C183.569 34.9547 182.95 31.84 182.95 28.512ZM192.55 28.512C192.55 31.2853 193.19 33.824 194.47 36.128C195.793 38.3893 197.563 40.2027 199.782 41.568C202.001 42.8907 204.497 43.552 207.27 43.552C209.958 43.552 212.369 42.8907 214.502 41.568C216.678 40.2027 218.385 38.3893 219.622 36.128C220.859 33.824 221.478 31.2853 221.478 28.512C221.478 25.6533 220.838 23.0933 219.558 20.832C218.278 18.528 216.55 16.7147 214.374 15.392C212.198 14.0267 209.745 13.344 207.014 13.344C204.283 13.344 201.83 14.0267 199.654 15.392C197.478 16.7147 195.75 18.528 194.47 20.832C193.19 23.0933 192.55 25.6533 192.55 28.512ZM323.58 4.896H355.708V13.856H332.86V23.904H353.084V32.864H332.86V43.04H356.604V52H323.58V4.896Z" fill="white"/>
<path d="M262.41 8.465C261.5 8.465 260.785 8.595 260.265 8.855C259.788 9.115 259.442 9.7 259.225 10.61C259.052 11.52 258.965 12.9717 258.965 14.965V21.335C258.965 22.9817 258.705 24.4117 258.185 25.625C257.708 26.795 257.145 27.7483 256.495 28.485C255.845 29.2217 255.238 29.785 254.675 30.175C255.152 30.5217 255.715 31.0633 256.365 31.8C257.058 32.4933 257.665 33.36 258.185 34.4C258.705 35.3967 258.965 36.5233 258.965 37.78V45.58C258.965 47.53 259.052 48.96 259.225 49.87C259.442 50.78 259.788 51.365 260.265 51.625C260.785 51.885 261.5 52.015 262.41 52.015H264.815V59.945H259.68C258.467 59.945 257.253 59.9233 256.04 59.88C254.87 59.8367 253.787 59.5983 252.79 59.165C251.793 58.775 250.992 58.0167 250.385 56.89C249.822 55.8067 249.54 54.225 249.54 52.145V41.42C249.54 39.47 249.107 37.7367 248.24 36.22C247.373 34.66 246.052 33.8583 244.275 33.815V26.275C246.052 26.2317 247.373 25.4517 248.24 23.935C249.107 22.4183 249.54 20.6633 249.54 18.67V8.4C249.54 6.32 249.822 4.73833 250.385 3.655C250.948 2.57166 251.707 1.81333 252.66 1.38C253.657 0.946665 254.762 0.708331 255.975 0.664996C257.188 0.57833 258.423 0.534998 259.68 0.534998H264.815V8.465H262.41ZM310.872 30.76C310.872 35.18 310.33 39.3183 309.247 43.175C308.207 47.0317 306.863 50.455 305.217 53.445C303.57 56.4783 301.815 58.97 299.952 60.92L292.477 57.475C295.033 54.5283 297.157 50.845 298.847 46.425C300.537 41.9617 301.382 36.74 301.382 30.76C301.382 24.78 300.537 19.58 298.847 15.16C297.157 10.6967 295.033 7.01333 292.477 4.11L299.952 0.599997C301.815 2.55 303.57 5.04166 305.217 8.075C306.863 11.1083 308.207 14.5533 309.247 18.41C310.33 22.2233 310.872 26.34 310.872 30.76Z" fill="#6610F2"/>
</svg>
