<svg width="173" height="35" viewBox="0 0 173 35" fill="none" xmlns="http://www.w3.org/2000/svg">
<path d="M2.432 28V6.048H6.592V28H2.432ZM20.5833 28.384C18.6633 28.384 17.0099 28.0747 15.6233 27.456C14.2366 26.8373 13.1699 25.8987 12.4233 24.64C11.6979 23.36 11.3353 21.7707 11.3353 19.872V6.048H15.4953V19.744C15.4953 21.4293 15.9326 22.7093 16.8073 23.584C17.7033 24.4373 18.9619 24.864 20.5833 24.864C22.2046 24.864 23.4633 24.4373 24.3593 23.584C25.2766 22.7093 25.7353 21.4293 25.7353 19.744V6.048H29.8953V19.872C29.8953 21.7707 29.5219 23.36 28.7753 24.64C28.0286 25.8987 26.9619 26.8373 25.5753 27.456C24.1886 28.0747 22.5246 28.384 20.5833 28.384ZM34.6195 28V6.048H46.1715C47.7928 6.048 49.1368 6.32533 50.2035 6.88C51.2702 7.43467 52.0702 8.224 52.6035 9.248C53.1368 10.272 53.4035 11.4773 53.4035 12.864C53.4035 14.2933 53.0835 15.5627 52.4435 16.672C51.8035 17.76 50.8648 18.5813 49.6275 19.136L54.1715 28H49.6275L45.5955 19.84H38.7795V28H34.6195ZM38.7795 16.352H45.8515C46.9182 16.352 47.7395 16.0427 48.3155 15.424C48.8915 14.8053 49.1795 13.952 49.1795 12.864C49.1795 12.16 49.0515 11.5733 48.7955 11.104C48.5395 10.6133 48.1662 10.24 47.6755 9.984C47.1848 9.728 46.5768 9.6 45.8515 9.6H38.7795V16.352ZM57.557 28V6.048H61.717V28H57.557ZM76.2523 28.384C74.0123 28.384 72.0923 27.9893 70.4923 27.2C68.9136 26.4107 67.6976 25.184 66.8443 23.52C66.0123 21.8347 65.5963 19.6693 65.5963 17.024C65.5963 13.1627 66.5349 10.304 68.4123 8.448C70.2896 6.592 72.9029 5.664 76.2523 5.664C78.0656 5.664 79.6976 5.97333 81.1483 6.592C82.6203 7.21067 83.7829 8.14933 84.6363 9.408C85.5109 10.6453 85.9483 12.224 85.9483 14.144H81.6923C81.6923 13.0773 81.4576 12.1813 80.9883 11.456C80.5403 10.7093 79.9109 10.144 79.1003 9.76C78.2896 9.376 77.3616 9.184 76.3163 9.184C74.8656 9.184 73.6603 9.472 72.7003 10.048C71.7403 10.6027 71.0256 11.4347 70.5563 12.544C70.1083 13.6533 69.8843 15.0293 69.8843 16.672V17.376C69.8843 19.04 70.1083 20.4267 70.5563 21.536C71.0256 22.6453 71.7296 23.4773 72.6683 24.032C73.6283 24.5867 74.8443 24.864 76.3163 24.864C77.4256 24.864 78.3963 24.6827 79.2283 24.32C80.0603 23.936 80.7003 23.3813 81.1483 22.656C81.6176 21.9093 81.8523 21.0027 81.8523 19.936H85.9483C85.9483 21.856 85.5216 23.4453 84.6683 24.704C83.8149 25.9413 82.6523 26.8693 81.1803 27.488C79.7296 28.0853 78.0869 28.384 76.2523 28.384ZM99.7308 28.384C97.4481 28.384 95.4748 27.9787 93.8108 27.168C92.1468 26.336 90.8668 25.0773 89.9708 23.392C89.0961 21.7067 88.6588 19.584 88.6588 17.024C88.6588 14.4427 89.0961 12.32 89.9708 10.656C90.8668 8.97066 92.1468 7.72267 93.8108 6.912C95.4748 6.08 97.4481 5.664 99.7308 5.664C102.035 5.664 104.008 6.08 105.651 6.912C107.315 7.72267 108.584 8.97066 109.459 10.656C110.355 12.32 110.803 14.4427 110.803 17.024C110.803 19.584 110.355 21.7067 109.459 23.392C108.584 25.0773 107.315 26.336 105.651 27.168C104.008 27.9787 102.035 28.384 99.7308 28.384ZM99.7308 24.864C100.84 24.864 101.811 24.704 102.643 24.384C103.496 24.064 104.211 23.5947 104.787 22.976C105.363 22.336 105.8 21.5573 106.099 20.64C106.397 19.7013 106.547 18.624 106.547 17.408V16.704C106.547 15.4667 106.397 14.3787 106.099 13.44C105.8 12.5013 105.363 11.7227 104.787 11.104C104.211 10.464 103.496 9.984 102.643 9.664C101.811 9.344 100.84 9.184 99.7308 9.184C98.6214 9.184 97.6401 9.344 96.7868 9.664C95.9548 9.984 95.2508 10.464 94.6748 11.104C94.0988 11.7227 93.6614 12.5013 93.3628 13.44C93.0854 14.3787 92.9468 15.4667 92.9468 16.704V17.408C92.9468 18.624 93.0854 19.7013 93.3628 20.64C93.6614 21.5573 94.0988 22.336 94.6748 22.976C95.2508 23.5947 95.9548 24.064 96.7868 24.384C97.6401 24.704 98.6214 24.864 99.7308 24.864ZM153.12 28V6.048H170.24V9.6H157.28V15.008H168.832V18.56H157.28V24.448H170.432V28H153.12Z" fill="white"/>
<path d="M124.714 6.8084C124.277 6.8084 123.933 6.87083 123.683 6.9957C123.454 7.12056 123.288 7.40151 123.184 7.83854C123.1 8.27557 123.059 8.97273 123.059 9.93003V12.9892C123.059 13.7801 122.934 14.4668 122.684 15.0495C122.455 15.6114 122.184 16.0693 121.872 16.423C121.559 16.7768 121.268 17.0474 120.997 17.2347C121.226 17.4012 121.497 17.6613 121.809 18.0151C122.142 18.348 122.434 18.7643 122.684 19.2637C122.934 19.7424 123.059 20.2835 123.059 20.887V24.6329C123.059 25.5694 123.1 26.2562 123.184 26.6932C123.288 27.1302 123.454 27.4112 123.683 27.5361C123.933 27.6609 124.277 27.7234 124.714 27.7234H125.87V31.5318H123.402C122.819 31.5318 122.236 31.5213 121.653 31.5005C121.091 31.4797 120.57 31.3653 120.092 31.1572C119.613 30.9699 119.227 30.6057 118.936 30.0646C118.665 29.5443 118.53 28.7847 118.53 27.7858V22.6351C118.53 22.0108 118.436 21.4281 118.249 20.887C118.061 20.3251 117.78 19.8672 117.405 19.5135C117.031 19.1597 116.562 18.9828 116 18.9828V15.3617C116.562 15.3409 117.031 15.164 117.405 14.831C117.78 14.4772 118.061 14.0298 118.249 13.4887C118.436 12.9268 118.53 12.3337 118.53 11.7094V6.77718C118.53 5.77826 118.665 5.01866 118.936 4.49839C119.207 3.97811 119.571 3.61392 120.029 3.40581C120.508 3.1977 121.039 3.08324 121.622 3.06243C122.205 3.02081 122.798 3 123.402 3H125.87V6.8084H124.714ZM148 17.5156C148 19.6383 147.74 21.6258 147.219 23.4779C146.719 25.3301 146.074 26.9742 145.283 28.4101C144.492 29.8669 143.648 31.0635 142.753 32L139.161 30.3455C139.973 29.409 140.702 28.3061 141.347 27.0366C141.993 25.7879 142.503 24.3728 142.878 22.7912C143.253 21.1887 143.44 19.4302 143.44 17.5156C143.44 15.601 143.253 13.8529 142.878 12.2713C142.503 10.6688 141.993 9.24327 141.347 7.99462C140.702 6.72515 139.973 5.63258 139.161 4.7169L142.753 3.03122C143.648 3.96771 144.492 5.16434 145.283 6.6211C146.074 8.07786 146.719 9.73233 147.219 11.5845C147.74 13.4159 148 15.3929 148 17.5156Z" fill="#986DFF"/>
</svg>
