<svg width="155" height="175" viewBox="0 0 155 175" fill="none" xmlns="http://www.w3.org/2000/svg">
<path d="M14.0375 157.506L0 0H154.3L140.244 157.481L77.0562 175L14.0375 157.506Z" fill="#1572B6"/>
<path d="M77.1514 161.61L128.214 147.454L140.226 12.8789H77.1514V161.61Z" fill="#33A9DC"/>
<path d="M77.1514 69.9418H102.714L104.476 50.1605H77.1514V30.8418H125.589L125.126 36.023L120.383 89.2605H77.1514V69.9418V69.9418Z" fill="white"/>
<path d="M77.2716 120.114L77.1841 120.139L55.6716 114.326L54.2966 98.9199H34.9028L37.6091 129.251L77.1778 140.239L77.2716 140.214V120.114V120.114Z" fill="#EBEBEB"/>
<path d="M101.069 88.4453L98.7439 114.314L77.2002 120.127V140.227L116.8 129.252L117.094 125.989L120.45 88.4453H101.069V88.4453Z" fill="white"/>
<path d="M77.2204 30.8418V50.1605H30.5579L30.1704 45.8168L29.2892 36.023L28.8267 30.8418H77.2204V30.8418Z" fill="#EBEBEB"/>
<path d="M77.1523 69.9463V89.265H55.9086L55.5211 84.9213L54.6461 75.1275L54.1836 69.9463H77.1523V69.9463Z" fill="#EBEBEB"/>
</svg>
