<svg width="40" height="40" viewBox="0 0 40 40" fill="none" xmlns="http://www.w3.org/2000/svg">
<path d="M32.4667 28.345C34.3274 25.5658 35.2059 22.2445 34.9625 18.9089C34.7193 15.5731 33.3682 12.4145 31.1239 9.93468C28.8797 7.45491 25.871 5.79632 22.576 5.22244C19.2812 4.64858 15.8889 5.19236 12.9384 6.7674C9.98799 8.34242 7.64854 10.8583 6.29185 13.9154C4.93517 16.9724 4.63907 20.3951 5.4506 23.6396C6.26215 26.8843 8.13478 29.7646 10.7709 31.8229C13.407 33.8813 16.6555 34.9995 20 35C20.728 35.0001 21.4375 34.7711 22.028 34.3455C22.6185 33.9198 23.0602 33.319 23.29 32.6284L29.1667 15M22.5 15L25.8334 25" stroke="#986DFF" stroke-width="1.875" stroke-linecap="round" stroke-linejoin="round"/>
<path d="M17.9401 15.685C17.1821 15.2408 16.3205 15.0041 15.4418 14.999C14.5633 14.9938 13.699 15.22 12.9357 15.6551C12.1725 16.0903 11.5374 16.7189 11.0944 17.4775C10.6514 18.2361 10.4161 19.0981 10.4122 19.9768C10.4083 20.8553 10.6359 21.7193 11.0722 22.4819C11.5085 23.2444 12.138 23.8785 12.8973 24.3204C13.6567 24.7623 14.519 24.9963 15.3976 24.9989C16.2761 25.0014 17.1398 24.7724 17.9017 24.335" stroke="#986DFF" stroke-width="1.875" stroke-linecap="round" stroke-linejoin="round"/>
</svg>
