<svg width="32" height="32" viewBox="0 0 32 32" fill="none" xmlns="http://www.w3.org/2000/svg">
<path d="M12 19.5C12.8284 19.5 13.5 18.8284 13.5 18C13.5 17.1716 12.8284 16.5 12 16.5C11.1716 16.5 10.5 17.1716 10.5 18C10.5 18.8284 11.1716 19.5 12 19.5Z" fill="#986DFF"/>
<path d="M20 19.5C20.8284 19.5 21.5 18.8284 21.5 18C21.5 17.1716 20.8284 16.5 20 16.5C19.1716 16.5 18.5 17.1716 18.5 18C18.5 18.8284 19.1716 19.5 20 19.5Z" fill="#986DFF"/>
<path d="M9.2998 10.0001C11.4676 9.32069 13.7281 8.98331 15.9998 9.00011C18.2715 8.98331 20.532 9.32069 22.6998 10.0001" stroke="#986DFF" stroke-width="1.5" stroke-linecap="round" stroke-linejoin="round"/>
<path d="M22.6998 22C20.532 22.6794 18.2715 23.0168 15.9998 23C13.7281 23.0168 11.4676 22.6794 9.2998 22" stroke="#986DFF" stroke-width="1.5" stroke-linecap="round" stroke-linejoin="round"/>
<path d="M19.3752 22.7627L20.8877 25.7627C20.985 25.9673 21.1505 26.1316 21.3558 26.2274C21.5611 26.3232 21.7934 26.3445 22.0127 26.2877C25.0752 25.5377 27.7252 24.2377 29.6502 22.5627C29.7953 22.4347 29.9007 22.2677 29.9539 22.0816C30.0071 21.8955 30.0058 21.6981 29.9502 21.5127L25.7127 7.3627C25.6715 7.21789 25.5968 7.08478 25.4948 6.97406C25.3927 6.86334 25.2662 6.77811 25.1252 6.7252C23.928 6.23404 22.6899 5.84922 21.4252 5.5752C21.1822 5.52197 20.928 5.5601 20.7113 5.68229C20.4946 5.80449 20.3304 6.0022 20.2502 6.2377L19.2627 9.2252" stroke="#986DFF" stroke-width="1.5" stroke-linecap="round" stroke-linejoin="round"/>
<path d="M12.6255 22.7627L11.113 25.7627C11.0156 25.9673 10.8501 26.1316 10.6448 26.2274C10.4395 26.3232 10.2073 26.3445 9.98796 26.2877C6.92546 25.5377 4.27546 24.2377 2.35046 22.5627C2.20533 22.4347 2.09994 22.2677 2.04677 22.0816C1.9936 21.8955 1.99488 21.6981 2.05046 21.5127L6.28796 7.3627C6.3292 7.21789 6.40384 7.08478 6.50587 6.97406C6.60791 6.86334 6.73449 6.77811 6.87546 6.7252C8.07266 6.23404 9.31077 5.84922 10.5755 5.5752C10.8185 5.52197 11.0726 5.5601 11.2893 5.68229C11.5061 5.80449 11.6702 6.0022 11.7505 6.2377L12.738 9.2252" stroke="#986DFF" stroke-width="1.5" stroke-linecap="round" stroke-linejoin="round"/>
<path d="M12 19.5C12.8284 19.5 13.5 18.8284 13.5 18C13.5 17.1716 12.8284 16.5 12 16.5C11.1716 16.5 10.5 17.1716 10.5 18C10.5 18.8284 11.1716 19.5 12 19.5Z" fill="#986DFF"/>
<path d="M20 19.5C20.8284 19.5 21.5 18.8284 21.5 18C21.5 17.1716 20.8284 16.5 20 16.5C19.1716 16.5 18.5 17.1716 18.5 18C18.5 18.8284 19.1716 19.5 20 19.5Z" fill="#986DFF"/>
<path d="M9.2998 10.0001C11.4676 9.32069 13.7281 8.98331 15.9998 9.00011C18.2715 8.98331 20.532 9.32069 22.6998 10.0001" stroke="#986DFF" stroke-width="1.5" stroke-linecap="round" stroke-linejoin="round"/>
<path d="M22.6998 22C20.532 22.6794 18.2715 23.0168 15.9998 23C13.7281 23.0168 11.4676 22.6794 9.2998 22" stroke="#986DFF" stroke-width="1.5" stroke-linecap="round" stroke-linejoin="round"/>
<path d="M19.3752 22.7627L20.8877 25.7627C20.985 25.9673 21.1505 26.1316 21.3558 26.2274C21.5611 26.3232 21.7934 26.3445 22.0127 26.2877C25.0752 25.5377 27.7252 24.2377 29.6502 22.5627C29.7953 22.4347 29.9007 22.2677 29.9539 22.0816C30.0071 21.8955 30.0058 21.6981 29.9502 21.5127L25.7127 7.3627C25.6715 7.21789 25.5968 7.08478 25.4948 6.97406C25.3927 6.86334 25.2662 6.77811 25.1252 6.7252C23.928 6.23404 22.6899 5.84922 21.4252 5.5752C21.1822 5.52197 20.928 5.5601 20.7113 5.68229C20.4946 5.80449 20.3304 6.0022 20.2502 6.2377L19.2627 9.2252" stroke="#986DFF" stroke-width="1.5" stroke-linecap="round" stroke-linejoin="round"/>
<path d="M12.6255 22.7627L11.113 25.7627C11.0156 25.9673 10.8501 26.1316 10.6448 26.2274C10.4395 26.3232 10.2073 26.3445 9.98796 26.2877C6.92546 25.5377 4.27546 24.2377 2.35046 22.5627C2.20533 22.4347 2.09994 22.2677 2.04677 22.0816C1.9936 21.8955 1.99488 21.6981 2.05046 21.5127L6.28796 7.3627C6.3292 7.21789 6.40384 7.08478 6.50587 6.97406C6.60791 6.86334 6.73449 6.77811 6.87546 6.7252C8.07266 6.23404 9.31077 5.84922 10.5755 5.5752C10.8185 5.52197 11.0726 5.5601 11.2893 5.68229C11.5061 5.80449 11.6702 6.0022 11.7505 6.2377L12.738 9.2252" stroke="#986DFF" stroke-width="1.5" stroke-linecap="round" stroke-linejoin="round"/>
</svg>
