<svg width="23" height="23" viewBox="0 0 23 23" fill="none" xmlns="http://www.w3.org/2000/svg">
<path d="M16 21.9994V18.1294C16.0375 17.6526 15.9731 17.1733 15.811 16.7232C15.6489 16.2732 15.3929 15.8629 15.06 15.5195C18.2 15.1695 21.5 13.9794 21.5 8.51945C21.4997 7.12328 20.9627 5.78065 20 4.76945C20.4559 3.54796 20.4236 2.1978 19.91 0.999449C19.91 0.999449 18.73 0.649449 16 2.47945C13.708 1.85827 11.292 1.85827 9 2.47945C6.27 0.649449 5.09 0.999449 5.09 0.999449C4.57638 2.1978 4.54414 3.54796 5 4.76945C4.03013 5.78815 3.49252 7.14291 3.5 8.54945C3.5 13.9694 6.8 15.1594 9.94 15.5494C9.611 15.8894 9.35726 16.2949 9.19531 16.7394C9.03335 17.1839 8.96681 17.6575 9 18.1294V21.9994M9 18.9994C5 20 7 16.7394 1.5 16.5L9 18.9994Z" stroke="white" stroke-width="1.5" stroke-linecap="round" stroke-linejoin="round"/>
</svg>
