<svg width="32" height="32" viewBox="0 0 32 32" fill="none" xmlns="http://www.w3.org/2000/svg">
<path d="M10.5 30C10.8944 30.0017 11.2853 29.9252 11.65 29.775C12.0147 29.6248 12.3461 29.4039 12.625 29.125C12.9039 28.8461 13.1248 28.5147 13.275 28.15C13.4252 27.7853 13.5017 27.3944 13.5 27V21" stroke="#986DFF" stroke-width="1.5" stroke-linecap="round" stroke-linejoin="round"/>
<path d="M21.5 30C21.1056 30.0017 20.7147 29.9252 20.35 29.775C19.9853 29.6248 19.6539 29.4039 19.375 29.125C19.0961 28.8461 18.8752 28.5147 18.725 28.15C18.5748 27.7853 18.4984 27.3944 18.5 27V21" stroke="#986DFF" stroke-width="1.5" stroke-linecap="round" stroke-linejoin="round"/>
<path d="M19 21H21C21.3944 20.9984 21.7853 21.0748 22.15 21.225C22.5147 21.3752 22.8461 21.5961 23.125 21.875C23.4039 22.1539 23.6248 22.4853 23.775 22.85C23.9252 23.2147 24.0017 23.6056 24 24V25C23.9983 25.3945 24.0748 25.7853 24.225 26.15C24.3752 26.5148 24.5961 26.8461 24.875 27.125C25.1539 27.4039 25.4853 27.6249 25.85 27.775C26.2147 27.9252 26.6056 28.0017 27 28" stroke="#986DFF" stroke-width="1.5" stroke-linecap="round" stroke-linejoin="round"/>
<path d="M13 21H11C10.6056 20.9984 10.2147 21.0748 9.85 21.225C9.48527 21.3752 9.1539 21.5961 8.87499 21.875C8.59609 22.1539 8.37517 22.4853 8.22499 22.85C8.07481 23.2147 7.99835 23.6056 8 24V25C8.00165 25.3945 7.92519 25.7853 7.77501 26.15C7.62483 26.5148 7.40391 26.8461 7.12501 27.125C6.8461 27.4039 6.51473 27.6249 6.15 27.775C5.78528 27.9252 5.39443 28.0017 5 28" stroke="#986DFF" stroke-width="1.5" stroke-linecap="round" stroke-linejoin="round"/>
<path d="M13.975 8C13.3875 7.08063 12.5781 6.32394 11.6212 5.79966C10.6644 5.27537 9.59104 5.00037 8.5 5C8.01488 5.83972 7.72379 6.77735 7.64809 7.74417C7.57239 8.711 7.71399 9.68251 8.0625 10.5875C7.37901 11.5951 7.00929 12.7825 7 14V15C7 16.5913 7.63214 18.1174 8.75736 19.2426C9.88258 20.3679 11.4087 21 13 21H19C20.5913 21 22.1174 20.3679 23.2426 19.2426C24.3679 18.1174 25 16.5913 25 15V14C24.9907 12.7825 24.621 11.5951 23.9375 10.5875C24.286 9.68251 24.4276 8.711 24.3519 7.74417C24.2762 6.77735 23.9851 5.83972 23.5 5C22.409 5.00037 21.3356 5.27537 20.3787 5.79966C19.4219 6.32394 18.6125 7.08063 18.025 8H13.975Z" stroke="#986DFF" stroke-width="1.5" stroke-linecap="round" stroke-linejoin="round"/>
</svg>
