<svg width="156" height="176" viewBox="0 0 156 176" fill="none" xmlns="http://www.w3.org/2000/svg">
<path d="M14.8865 158.006L0.842773 0.5H155.155L141.093 157.981L77.9053 175.5L14.8865 158.006Z" fill="#E44F26"/>
<path d="M78 162.11L129.063 147.954L141.075 13.3789H78V162.11Z" fill="#F1662A"/>
<path d="M78 71.7953H52.4375L50.675 52.0141H78V32.6953H29.5625L30.025 37.8828L34.7688 91.1141H78V71.7953V71.7953Z" fill="#EBEBEB"/>
<path d="M78.0011 121.962L77.9136 121.987L56.4011 116.181L55.0261 100.774H35.6323L38.3386 131.099L77.9136 142.087L78.0011 142.062V121.962Z" fill="#EBEBEB"/>
<path d="M77.9302 71.7949V91.1137H101.718L99.4802 116.17L77.9302 121.982V142.082L117.536 131.101L117.824 127.839L122.361 76.9824L122.836 71.7949H77.9302V71.7949Z" fill="white"/>
<path d="M77.9302 32.6953V52.0141H124.593L124.98 47.6766L125.861 37.8828L126.324 32.6953H77.9302V32.6953Z" fill="white"/>
</svg>
