<svg width="54" height="58" viewBox="0 0 54 58" fill="none" xmlns="http://www.w3.org/2000/svg">
<path d="M39 1H13C10.2386 1 8 3.23858 8 6V52C8 54.7614 10.2386 57 13 57H39C41.7614 57 44 54.7614 44 52V6C44 3.23858 41.7614 1 39 1Z" stroke="url(#paint0_linear_2452_76)" stroke-width="1.5" stroke-linecap="round" stroke-linejoin="round"/>
<path d="M26 53C27.1046 53 28 52.1046 28 51C28 49.8954 27.1046 49 26 49C24.8954 49 24 49.8954 24 51C24 52.1046 24.8954 53 26 53Z" fill="#986DFF"/>
<path d="M24.6546 12.3401H2C0.89543 12.3401 0 13.2355 0 14.3401V25.0001C0 26.1047 0.89543 27.0001 2 27.0001H24.6546C25.7592 27.0001 26.6546 26.1047 26.6546 25.0001V14.3401C26.6546 13.2355 25.7592 12.3401 24.6546 12.3401Z" fill="url(#paint1_linear_2452_76)"/>
<path d="M4.66406 17.1885H21.6564" stroke="#110E1B" stroke-width="1.5" stroke-linecap="round"/>
<path d="M4.66406 21.7842H15.3259" stroke="#110E1B" stroke-width="1.5" stroke-linecap="round"/>
<path d="M24 5H29" stroke="url(#paint2_linear_2452_76)" stroke-width="1.2" stroke-linecap="round" stroke-linejoin="round"/>
<path d="M46 32H33C31.8954 32 31 32.8954 31 34V41C31 42.1046 31.8954 43 33 43H46C47.1046 43 48 42.1046 48 41V34C48 32.8954 47.1046 32 46 32Z" fill="#110E1B" stroke="#986DFF" stroke-width="1.5" stroke-linecap="round"/>
<defs>
<linearGradient id="paint0_linear_2452_76" x1="3.23529" y1="-13.4667" x2="24.6708" y2="63.0313" gradientUnits="userSpaceOnUse">
<stop stop-color="white"/>
<stop offset="1" stop-color="white" stop-opacity="0"/>
</linearGradient>
<linearGradient id="paint1_linear_2452_76" x1="13.7869" y1="15.9706" x2="-1.75438" y2="18.7034" gradientUnits="userSpaceOnUse">
<stop stop-color="#986DFF"/>
<stop offset="1" stop-color="#986DFF" stop-opacity="0"/>
</linearGradient>
<linearGradient id="paint2_linear_2452_76" x1="-nan" y1="-nan" x2="-nan" y2="-nan" gradientUnits="userSpaceOnUse">
<stop stop-color="white"/>
<stop offset="1" stop-color="white" stop-opacity="0"/>
</linearGradient>
</defs>
</svg>
