<svg width="66" height="57" viewBox="0 0 66 57" fill="none" xmlns="http://www.w3.org/2000/svg">
<circle cx="3.56588" cy="24.2739" r="2.66988" fill="#6610F2"/>
<circle cx="62.7021" cy="24.2739" r="2.66988" fill="#6610F2"/>
<path d="M25.7626 1.22394H41.2203C40.5034 11.4395 44.9541 15.9349 47.269 16.9057L32.9314 42.6685L18.8179 16.9057C20.8341 16.1589 25.0458 12.1563 25.7626 2.12004" stroke="url(#paint0_linear_2173_285)" stroke-width="1.5" stroke-linecap="round" stroke-linejoin="round"/>
<path d="M20.1626 1H45.9254" stroke="#B8B8BA" stroke-width="1.5" stroke-linecap="round" stroke-linejoin="round"/>
<path d="M3.58447 24.5165C3.58447 24.5165 5.15265 53.8638 32.9317 53.1917C60.7107 52.5196 62.727 24.5165 62.727 24.5165M6.67478 53.1917H58.4705" stroke="url(#paint1_linear_2173_285)" stroke-width="1.5"/>
<circle cx="61.3827" cy="52.9675" r="2.83439" stroke="#6610F2" stroke-width="1.5"/>
<circle cx="3.58439" cy="52.9675" r="2.83439" stroke="#6610F2" stroke-width="1.5"/>
<rect x="29.873" y="50.1331" width="6.11683" height="6.11683" fill="#110E1B" stroke="#6610F2" stroke-width="1.5"/>
<defs>
<linearGradient id="paint0_linear_2173_285" x1="50.6294" y1="-9.75326" x2="22.1782" y2="39.0841" gradientUnits="userSpaceOnUse">
<stop stop-color="white"/>
<stop offset="1" stop-color="white" stop-opacity="0"/>
</linearGradient>
<linearGradient id="paint1_linear_2173_285" x1="33.1557" y1="24.5165" x2="3.55992" y2="58.4025" gradientUnits="userSpaceOnUse">
<stop stop-color="#6610F2"/>
<stop offset="1" stop-color="#6610F2" stop-opacity="0"/>
</linearGradient>
</defs>
</svg>
