<svg xmlns="http://www.w3.org/2000/svg" width="500" height="500" style="width:100%;height:100%"><defs><mask id="c"><g display="block"><path fill="red" d="M43.341 36.728h-87.466v-72.962h87.466v72.962z" transform="matrix(3.68 0 0 3.68 251.38 248.84)"/><path stroke-linecap="round" stroke-linejoin="round" fill-opacity="0" stroke="#FDFAFA" stroke-width="12.88" d="M410.875 383.999H89v-268.5h321.875v268.5z"/></g></mask><mask id="b"><g display="block"><path fill="red" d="M43.341 36.728h-87.466v-72.962h87.466v72.962z" transform="matrix(3.68 0 0 3.68 251.38 248.84)"/><path stroke-linecap="round" stroke-linejoin="round" fill-opacity="0" stroke="#FDFAFA" stroke-width="12.88" d="M410.875 383.999H89v-268.5h321.875v268.5z"/></g></mask><clipPath id="a"><path d="M0 0h500v500H0z"/></clipPath></defs><g clip-path="url(#a)"><path stroke-linecap="round" stroke-linejoin="round" stroke="#6610F1" stroke-width="12.88" d="M345.172 186.57c0 17.017-13.792 30.81-30.809 30.81-17.016 0-30.809-13.793-30.809-30.81 0-17.016 13.793-30.808 30.81-30.808 17.016 0 30.808 13.792 30.808 30.809zM278.259 382.81l51.814-89.574 52.374 89.648" fill="none" display="block"/><g mask="url(#b)" display="block"><path stroke-linecap="round" stroke-linejoin="round" stroke="#6610F1" stroke-width="12.88" d="M422.257 382.693l51.815-89.575 52.373 89.648" fill="none"/></g><g mask="url(#c)" display="block"><path stroke-linecap="round" stroke-linejoin="round" stroke="#6610F1" stroke-width="12.88" d="M118.83 382.505l106.183-182.58 79.433 136.459" fill="none"/></g><path stroke-linecap="round" stroke-linejoin="round" stroke="#FDFAFA" stroke-width="12.88" d="M410.875 383.999H89v-268.5h321.875v268.5z" fill="none" display="block"/></g></svg>