<svg width="22" height="22" viewBox="0 0 22 22" fill="none" xmlns="http://www.w3.org/2000/svg">
<path d="M16 1H6C3.23858 1 1 3.23858 1 6V16C1 18.7614 3.23858 21 6 21H16C18.7614 21 21 18.7614 21 16V6C21 3.23858 18.7614 1 16 1Z" stroke="white" stroke-width="1.5" stroke-linecap="round" stroke-linejoin="round"/>
<path d="M14.9997 10.3703C15.1231 11.2025 14.981 12.0525 14.5935 12.7993C14.206 13.5461 13.5929 14.1517 12.8413 14.53C12.0898 14.9082 11.2382 15.0399 10.4075 14.9062C9.57683 14.7726 8.80947 14.3804 8.21455 13.7855C7.61962 13.1905 7.22744 12.4232 7.09377 11.5925C6.96011 10.7619 7.09177 9.9102 7.47003 9.15868C7.84829 8.40716 8.45389 7.79404 9.20069 7.40654C9.94749 7.01904 10.7975 6.87689 11.6297 7.0003C12.4786 7.12619 13.2646 7.52176 13.8714 8.12861C14.4782 8.73545 14.8738 9.52138 14.9997 10.3703Z" stroke="white" stroke-width="1.5" stroke-linecap="round" stroke-linejoin="round"/>
<path d="M16.5 5.5H16.51" stroke="white" stroke-width="1.5" stroke-linecap="round" stroke-linejoin="round"/>
</svg>
