<svg width="82" height="73" viewBox="0 0 82 73" fill="none" xmlns="http://www.w3.org/2000/svg">
<path d="M22.608 8.992C21.6 8.992 20.808 9.136 20.232 9.424C19.704 9.712 19.32 10.36 19.08 11.368C18.888 12.376 18.792 13.984 18.792 16.192V23.248C18.792 25.072 18.504 26.656 17.928 28C17.4 29.296 16.776 30.352 16.056 31.168C15.336 31.984 14.664 32.608 14.04 33.04C14.568 33.424 15.192 34.024 15.912 34.84C16.68 35.608 17.352 36.568 17.928 37.72C18.504 38.824 18.792 40.072 18.792 41.464V50.104C18.792 52.264 18.888 53.848 19.08 54.856C19.32 55.864 19.704 56.512 20.232 56.8C20.808 57.088 21.6 57.232 22.608 57.232H25.272V66.016H19.584C18.24 66.016 16.896 65.992 15.552 65.944C14.256 65.896 13.056 65.632 11.952 65.152C10.848 64.72 9.96 63.88 9.288 62.632C8.664 61.432 8.352 59.68 8.352 57.376V45.496C8.352 44.056 8.136 42.712 7.704 41.464C7.272 40.168 6.624 39.112 5.76 38.296C4.896 37.48 3.816 37.072 2.52 37.072V28.72C3.816 28.672 4.896 28.264 5.76 27.496C6.624 26.68 7.272 25.648 7.704 24.4C8.136 23.104 8.352 21.736 8.352 20.296V8.92C8.352 6.616 8.664 4.864 9.288 3.664C9.912 2.464 10.752 1.624 11.808 1.144C12.912 0.663999 14.136 0.399998 15.48 0.351995C16.824 0.255997 18.192 0.207997 19.584 0.207997H25.272V8.992H22.608ZM76.2885 33.688C76.2885 38.584 75.6885 43.168 74.4885 47.44C73.3365 51.712 71.8485 55.504 70.0245 58.816C68.2005 62.176 66.2565 64.936 64.1925 67.096L55.9125 63.28C57.7845 61.12 59.4645 58.576 60.9525 55.648C62.4405 52.768 63.6165 49.504 64.4805 45.856C65.3445 42.16 65.7765 38.104 65.7765 33.688C65.7765 29.272 65.3445 25.24 64.4805 21.592C63.6165 17.896 62.4405 14.608 60.9525 11.728C59.4645 8.8 57.7845 6.28 55.9125 4.168L64.1925 0.279996C66.2565 2.44 68.2005 5.2 70.0245 8.56C71.8485 11.92 73.3365 15.736 74.4885 20.008C75.6885 24.232 76.2885 28.792 76.2885 33.688Z" fill="#BBBBBB"/>
</svg>
