<svg width="40" height="40" viewBox="0 0 40 40" fill="none" xmlns="http://www.w3.org/2000/svg">
<path d="M6.25017 26.0974L9.58763 23.994C10.2316 25.1828 10.8173 26.1888 12.2223 26.1888C13.5691 26.1888 14.4183 25.6402 14.4183 23.5063V8.99412H18.5168V23.5666C18.5168 27.9872 16.0285 29.9995 12.398 29.9995C9.11929 29.9995 7.21631 28.2315 6.25017 26.0974ZM20.743 25.64L24.0801 23.628C24.9587 25.122 26.1005 26.2195 28.1203 26.2195C29.8187 26.2195 30.9015 25.3352 30.9015 24.1157C30.9015 22.6524 29.789 22.134 27.9154 21.2806L26.891 20.8229C23.9339 19.5123 21.9725 17.8659 21.9725 14.3904C21.9725 11.1891 24.3145 8.75 27.9741 8.75C30.5797 8.75 32.4534 9.69526 33.7999 12.1647L30.6087 14.299C29.9059 12.9881 29.1451 12.4698 27.974 12.4698C26.7736 12.4698 26.0124 13.2625 26.0124 14.299C26.0124 15.5794 26.7736 16.098 28.53 16.8907L29.5546 17.3479C33.0386 18.9029 35 20.4881 35 24.0548C35 27.8966 32.1017 30 28.208 30C24.4023 30 21.9432 28.1096 20.743 25.64Z" fill="#986DFF"/>
</svg>
