<svg width="22" height="21" viewBox="0 0 22 21" fill="none" xmlns="http://www.w3.org/2000/svg">
<path d="M15 7C16.5913 7 18.1174 7.63214 19.2426 8.75736C20.3679 9.88258 21 11.4087 21 13V20H17V13C17 12.4696 16.7893 11.9609 16.4142 11.5858C16.0391 11.2107 15.5304 11 15 11C14.4696 11 13.9609 11.2107 13.5858 11.5858C13.2107 11.9609 13 12.4696 13 13V20H9V13C9 11.4087 9.63214 9.88258 10.7574 8.75736C11.8826 7.63214 13.4087 7 15 7V7Z" stroke="white" stroke-width="1.5" stroke-linecap="round" stroke-linejoin="round"/>
<path d="M5 8H1V20H5V8Z" stroke="white" stroke-width="1.5" stroke-linecap="round" stroke-linejoin="round"/>
<path d="M3 5C4.10457 5 5 4.10457 5 3C5 1.89543 4.10457 1 3 1C1.89543 1 1 1.89543 1 3C1 4.10457 1.89543 5 3 5Z" stroke="white" stroke-width="1.5" stroke-linecap="round" stroke-linejoin="round"/>
</svg>
