<svg width="132" height="40" viewBox="0 0 132 40" fill="none" xmlns="http://www.w3.org/2000/svg">
<mask id="mask0_1027_53" style="mask-type:luminance" maskUnits="userSpaceOnUse" x="0" y="4" width="132" height="32">
<path d="M132 4H0V36H132V4Z" fill="white"/>
</mask>
<g mask="url(#mask0_1027_53)">
<path d="M132.167 4.01323V9.07785H121.282V35.7231H115.839V9.07815H104.727V4.01323H132.167ZM25.5126 35.7231L5.44308 10.7779V35.7102H0V4H6.80338L32.1591 35.4858L32.1594 9.07815L32.1572 4.01323H59.5972V9.07785H37.6022V17.2255H55.2908V22.2905H37.6022V30.6585H59.5975V35.7231H25.5126ZM77.0415 22.2422L80.6086 26.6769L73.2994 35.7606H66.1563L77.0415 22.2422ZM73.2994 4.02646L82.5086 15.4634L91.6889 4.06154L98.812 4.05077L86.0748 19.8923L98.8326 35.7363H91.6889L66.1766 4.02646H73.2994Z" fill="#986DFF"/>
</g>
</svg>
