<svg width="40" height="40" viewBox="0 0 40 40" fill="none" xmlns="http://www.w3.org/2000/svg">
<g clip-path="url(#clip0_1027_45)">
<mask id="mask0_1027_45" style="mask-type:luminance" maskUnits="userSpaceOnUse" x="0" y="0" width="40" height="40">
<path d="M40 0H0V40H40V0Z" fill="white"/>
</mask>
<g mask="url(#mask0_1027_45)">
<path d="M19.2001 40C15.8054 40 12.5496 38.6514 10.1492 36.251C7.74871 33.8505 6.40015 30.5948 6.40015 27.2C6.40015 23.8053 7.74871 20.5495 10.1492 18.149C12.5496 15.7486 15.8054 14.4 19.2001 14.4V40ZM19.2001 0H6.40015V12.8H19.2001V0ZM27.2001 12.8C28.8975 12.8 30.5254 12.1257 31.7256 10.9255C32.9259 9.72525 33.6001 8.09739 33.6001 6.4C33.6001 4.70261 32.9259 3.07475 31.7256 1.87451C30.5254 0.674284 28.8975 0 27.2001 0C25.5027 0 23.8749 0.674284 22.6746 1.87451C21.4744 3.07475 20.8001 4.70261 20.8001 6.4C20.8001 8.09739 21.4744 9.72525 22.6746 10.9255C23.8749 12.1257 25.5027 12.8 27.2001 12.8Z" fill="#986DFF"/>
</g>
</g>
<defs>
<clipPath id="clip0_1027_45">
<rect width="40" height="40" fill="white"/>
</clipPath>
</defs>
</svg>
