<svg width="40" height="40" viewBox="0 0 40 40" fill="none" xmlns="http://www.w3.org/2000/svg">
<path d="M31.25 14.5L30.125 14.125C30.125 13.875 30.25 13.625 30.25 13.375C31.125 9.24997 30.5 5.87497 28.625 4.74997C26.75 3.74997 23.75 4.74997 20.75 7.37497C20.5 7.62497 20.125 7.87497 19.875 8.12497C19.625 7.99997 19.5 7.74997 19.25 7.62497C16.25 4.87497 13.125 3.74997 11.25 4.87497C9.375 5.87497 8.875 9.12497 9.625 13C9.75 13.375 9.75 13.75 9.875 14.125C9.375 14.25 9 14.375 8.625 14.5C4.875 15.75 2.5 17.875 2.5 19.875C2.5 22 5 24.25 8.875 25.5C9.125 25.625 9.5 25.75 9.875 25.75C9.75 26.125 9.625 26.625 9.625 27C8.875 30.875 9.5 33.875 11.25 35C13.125 36.125 16.25 35 19.375 32.25C19.625 32 19.875 31.75 20.125 31.625C20.375 31.875 20.75 32.25 21.125 32.5C24.125 35.125 27 36.125 28.875 35C30.75 33.875 31.375 30.625 30.625 26.625C30.625 26.375 30.5 26 30.375 25.625C30.625 25.5 30.875 25.5 31 25.375C35 24 37.625 21.875 37.625 19.75C37.5 17.875 35 15.875 31.25 14.5ZM21.875 8.62497C24.5 6.37497 26.875 5.49997 28 6.12497C29.125 6.74997 29.625 9.49997 28.875 13.125C28.875 13.375 28.75 13.625 28.75 13.875C27.25 13.5 25.625 13.25 24.125 13.125C23.25 11.875 22.25 10.625 21.125 9.37497L21.875 8.62497ZM12.875 21.75C13.25 22.375 13.5 23 13.875 23.625C14.25 24.25 14.625 24.875 15 25.375C13.875 25.25 12.875 25.125 11.75 24.875C12 23.875 12.375 22.875 12.875 21.75ZM12.875 18.25C12.375 17.25 12.125 16.25 11.75 15.25C12.75 15 13.875 14.875 14.875 14.75C14.5 15.375 14.125 15.875 13.75 16.5C13.5 17 13.125 17.625 12.875 18.25ZM13.625 20C14.125 19 14.625 18.125 15.125 17.125C15.625 16.25 16.25 15.25 16.875 14.375C17.875 14.25 19 14.25 20.125 14.25C21.25 14.25 22.25 14.25 23.375 14.375C24 15.25 24.5 16.125 25 17.125C25.5 18 26 19 26.5 20C26 21 25.5 21.875 25 22.875C24.5 23.75 23.875 24.75 23.375 25.625C22.375 25.75 21.25 25.75 20.125 25.75C19 25.75 18 25.75 17 25.625C16.375 24.75 15.875 23.875 15.25 22.875C14.625 21.875 14.125 21 13.625 20ZM26.125 23.625C26.5 23 26.875 22.375 27.125 21.75C27.625 22.75 28 23.75 28.25 24.875C27.125 25.125 26.125 25.25 25 25.375C25.5 24.75 25.875 24.125 26.125 23.625ZM27.125 18.25C26.75 17.625 26.5 17 26.125 16.375C25.75 15.75 25.375 15.25 25.125 14.625C26.25 14.75 27.25 15 28.375 15.125C28 16.25 27.625 17.25 27.125 18.25ZM20 10.375C20.75 11.125 21.375 12 22 12.875C20.625 12.75 19.25 12.75 17.875 12.875C18.625 12 19.375 11.125 20 10.375ZM12 6.12497C13.125 5.49997 15.75 6.37497 18.5 8.87497L19 9.37497C17.875 10.5 16.875 11.75 16 13.125C14.375 13.25 12.875 13.5 11.375 13.875C11.25 13.5 11.25 13.125 11.125 12.75C10.375 9.37497 10.875 6.74997 12 6.12497ZM10.25 24.5C10 24.375 9.625 24.375 9.375 24.25C7.625 23.625 6.25 22.875 5.25 22.125C4.375 21.375 4 20.625 4 20C4 18.75 5.875 17.125 9.125 16C9.5 15.875 9.875 15.75 10.375 15.625C10.75 17.125 11.25 18.625 12 20C11.25 21.5 10.75 23 10.25 24.5ZM18.375 31.375C17 32.625 15.625 33.375 14.5 33.875C13.375 34.25 12.625 34.25 12 34C10.875 33.375 10.375 30.875 11 27.625C11.125 27.125 11.25 26.75 11.25 26.25C12.75 26.625 14.375 26.875 16 26.875C16.875 28.125 17.875 29.375 19 30.625C18.75 30.875 18.625 31.125 18.375 31.375ZM20 29.625C19.25 28.875 18.625 28 17.875 27.125H22C21.5 28 20.75 28.875 20 29.625ZM29.125 31.75C28.875 32.875 28.5 33.625 28 33.875C26.875 34.5 24.5 33.625 22 31.5C21.75 31.25 21.375 31 21.125 30.75C22.125 29.625 23.125 28.375 24 27C25.625 26.875 27.125 26.625 28.75 26.25C28.875 26.5 28.875 26.875 29 27.125C29.375 28.875 29.375 30.5 29.125 31.75ZM30.375 24.25C30.125 24.25 30 24.375 29.75 24.375C29.25 22.875 28.625 21.375 28 19.875C28.625 18.5 29.25 17 29.75 15.5C30.125 15.625 30.5 15.75 30.75 15.875C34 17 36 18.625 36 19.875C36 21.375 33.875 23.125 30.375 24.25Z" fill="#986DFF"/>
<path d="M20 23.125C20.625 23.125 21.25 23 21.75 22.625C22.25 22.25 22.625 21.75 22.875 21.25C23.125 20.625 23.125 20 23 19.375C22.875 18.75 22.625 18.25 22.125 17.75C21.75 17.25 21.125 17 20.5 16.875C19.875 16.75 19.25 16.875 18.625 17C18 17.25 17.5 17.625 17.25 18.125C16.875 18.625 16.75 19.25 16.75 19.875C16.75 20.25 16.875 20.75 17 21.125C17.125 21.5 17.375 21.875 17.625 22.125C17.875 22.375 18.25 22.625 18.625 22.75C19.125 23 19.625 23.125 20 23.125Z" fill="#986DFF"/>
</svg>
