<svg width="200" height="200" viewBox="0 0 200 200" fill="none" xmlns="http://www.w3.org/2000/svg">
<path d="M42 45.5L52 14.5L57.5 12.5L65.5 14.5L73.5 17L82.5 22.5L91 30L101 35.5L111.5 25L123.5 14.5L138.5 10.5L149 12.5L157 32.5L152 66.5L168.5 71.5L190 85.5L197 98L190 111L168.5 120.5L152.5 127.5L155.5 142.5V168.5L149 178L140 181.5L121 173.5L101 160L96 165L72 181.5L52 180L44.5 160L47 129.5L40 125L10 108.5L4.5 91L22.5 76.5L47 65.5L42 45.5Z" fill="#FEFBFB"/>
<path d="M99.9566 116.042C104.898 116.042 109.638 114.079 113.132 110.584C116.627 107.09 118.59 102.351 118.59 97.4087C118.59 92.4669 116.627 87.7274 113.132 84.233C109.638 80.7385 104.898 78.7754 99.9566 78.7754C95.0147 78.7754 90.2752 80.7385 86.7808 84.233C83.2864 87.7274 81.3232 92.4669 81.3232 97.4087C81.3232 102.351 83.2864 107.09 86.7808 110.584C90.2752 114.079 95.0147 116.042 99.9566 116.042V116.042Z" fill="#6610F2"/>
<path d="M200 97.408C200 84.158 183.408 71.5997 157.967 63.8163C163.842 37.8913 161.233 17.258 149.733 10.6497C146.947 9.08901 143.793 8.30344 140.6 8.37467V17.458C142.475 17.458 143.983 17.833 145.25 18.5247C150.792 21.708 153.2 33.808 151.325 49.383C150.875 53.2163 150.142 57.2497 149.242 61.3663C140.722 59.3133 132.075 57.8295 123.358 56.9247C118.165 49.7604 112.5 42.9508 106.4 36.5413C119.692 24.1913 132.167 17.4247 140.65 17.4247V8.33301C129.433 8.33301 114.758 16.3247 99.9167 30.183C85.0833 16.4163 70.4 8.49967 59.1917 8.49967V17.583C67.6333 17.583 80.15 24.3163 93.4417 36.583C87.7333 42.583 82.025 49.383 76.6 56.9247C67.8653 57.8195 59.2029 59.3175 50.675 61.408C49.7333 57.333 49.0417 53.383 48.55 49.5913C46.6333 34.008 49 21.908 54.5083 18.6913C55.725 17.958 57.3167 17.6247 59.1917 17.6247V8.54134C55.775 8.54134 52.6667 9.27467 49.9833 10.8163C38.525 17.4247 35.9583 38.008 41.8667 63.858C16.5083 71.6913 0 84.1997 0 97.408C0 110.658 16.5917 123.216 42.0333 130.991C36.1583 156.925 38.7667 177.558 50.2667 184.158C52.9167 185.708 56.0167 186.441 59.4333 186.441C70.65 186.441 85.325 178.45 100.167 164.591C115 178.366 129.675 186.275 140.892 186.275C144.109 186.343 147.287 185.555 150.1 183.991C161.558 177.391 164.125 156.808 158.217 130.958C183.492 123.175 200 110.616 200 97.408ZM146.917 70.2163C145.333 75.6651 143.498 81.0376 141.417 86.3163C138.01 79.6893 134.269 73.2394 130.208 66.9913C136 67.8497 141.583 68.908 146.925 70.2163H146.917ZM128.25 113.633C125.075 119.133 121.808 124.358 118.425 129.208C106.194 130.286 93.892 130.3 81.6583 129.25C74.6412 119.226 68.5045 108.614 63.3167 97.533C68.4965 86.4255 74.6072 75.7764 81.5833 65.6997C93.8116 64.6194 106.111 64.6027 118.342 65.6497C121.725 70.4997 125.033 75.683 128.208 81.1497C131.308 86.483 134.125 91.8997 136.692 97.3663C134.097 102.899 131.28 108.326 128.25 113.633V113.633ZM141.417 108.333C143.617 113.791 145.5 119.258 147.042 124.558C141.708 125.866 136.075 126.966 130.25 127.816C134.294 121.512 138.021 115.009 141.417 108.333V108.333ZM100.083 151.833C96.2917 147.916 92.5 143.558 88.75 138.783C92.4167 138.95 96.1667 139.075 99.9583 139.075C103.792 139.075 107.583 138.991 111.292 138.783C107.625 143.558 103.833 147.916 100.083 151.833ZM69.75 127.816C64.1312 127.002 58.553 125.929 53.0333 124.6C54.5417 119.341 56.4167 113.916 58.5333 108.5C60.2083 111.75 61.9667 115.016 63.8833 118.283C65.8 121.541 67.75 124.725 69.75 127.816ZM99.875 42.983C103.667 46.8997 107.458 51.258 111.208 56.033C107.542 55.8663 103.792 55.7413 100 55.7413C96.1667 55.7413 92.375 55.8247 88.6667 56.033C92.3333 51.258 96.125 46.8997 99.875 42.983ZM69.7083 66.9997C65.6656 73.2908 61.9387 79.7794 58.5417 86.4413C56.4018 81.1285 54.5245 75.7136 52.9167 70.2163C58.25 68.9497 63.8833 67.8497 69.7083 66.9997ZM32.8167 118.033C18.3833 111.883 9.05 103.808 9.05 97.408C9.05 91.008 18.3833 82.8913 32.8167 76.783C36.3167 75.2747 40.15 73.9247 44.1083 72.6663C46.4333 80.6497 49.4917 88.9664 53.275 97.4914C49.703 105.51 46.6821 113.762 44.2333 122.191C40.3621 120.993 36.552 119.605 32.8167 118.033V118.033ZM54.75 176.283C49.2083 173.116 46.8 161 48.675 145.433C49.125 141.6 49.8583 137.558 50.7583 133.441C58.7417 135.4 67.4667 136.908 76.6417 137.891C81.8348 145.055 87.5002 151.865 93.6 158.275C80.3083 170.625 67.8333 177.391 59.35 177.391C57.7495 177.409 56.1694 177.031 54.75 176.291V176.283ZM151.45 145.225C153.367 160.8 151 172.908 145.492 176.125C144.275 176.858 142.683 177.183 140.808 177.183C132.367 177.183 119.85 170.458 106.558 158.183C112.267 152.2 117.975 145.391 123.4 137.85C132.135 136.955 140.797 135.457 149.325 133.366C150.267 137.483 150.992 141.433 151.45 145.225V145.225ZM167.142 118.033C163.642 119.541 159.808 120.891 155.85 122.15C153.358 113.677 150.296 105.383 146.683 97.3247C150.433 88.8497 153.442 80.5747 155.725 72.6247C159.767 73.883 163.592 75.2747 167.183 76.783C181.617 82.933 190.95 91.008 190.95 97.408C190.908 103.808 181.575 111.925 167.142 118.033V118.033Z" fill="#6610F2"/>
</svg>
