<svg width="50" height="40" viewBox="0 0 50 40" fill="none" xmlns="http://www.w3.org/2000/svg">
<mask id="mask0_1027_88" style="mask-type:luminance" maskUnits="userSpaceOnUse" x="0" y="1" width="50" height="38">
<path d="M50 1.25H0V38.75H50V1.25Z" fill="white"/>
</mask>
<g mask="url(#mask0_1027_88)">
<path d="M43.0202 22.8061L43.2265 22.803C44.5296 22.803 45.7625 23.1061 46.8563 23.6468L46.8078 23.6249C47.7809 24.0949 48.6118 24.8146 49.2156 25.7107L49.2296 25.7326C49.7553 26.5039 50.0153 27.4254 49.9703 28.3576V28.3483C49.9483 28.779 49.8404 29.201 49.6531 29.5895C49.4659 29.978 49.2029 30.3252 48.8796 30.6107L48.8765 30.6139C48.5278 30.9565 48.1095 31.2202 47.65 31.3874L47.6265 31.3951C47.3661 31.4473 47.2229 31.4081 47.1969 31.278C47.1709 31.1477 47.288 31.0045 47.5484 30.8483C48.2546 30.4201 48.7656 29.7295 48.9515 28.9155L48.9563 28.8951C48.9968 28.3525 48.8886 27.8091 48.6438 27.3233L48.6515 27.3405C48.3236 26.6496 47.8165 26.0592 47.1828 25.6311L47.1671 25.6218C46.188 24.9969 45.0704 24.6219 43.9125 24.5295L43.8875 24.528C42.2293 24.292 40.5381 24.4885 38.9781 25.0982L39.0438 25.0749C39.2703 25.6045 39.4125 26.2186 39.4327 26.8624V26.8701C39.4215 27.4974 39.2514 28.1115 38.9386 28.6551C38.6257 29.1989 38.1802 29.6545 37.6437 29.9795L37.6265 29.9889C37.1421 30.3326 36.589 30.6343 36 30.8686L35.9453 30.8874C35.518 31.0931 35.0454 31.1868 34.5719 31.1593H34.5796C33.5911 30.9519 33.3568 30.0925 33.8765 28.5811C34.1031 27.9233 34.4203 27.353 34.8219 26.8514L34.8125 26.8624C35.3265 26.1905 35.8906 25.6014 36.514 25.0795L36.5313 25.0655L36.3781 24.8374C36.0746 24.313 35.8205 23.7618 35.6188 23.1905L35.5969 23.1186C35.4406 22.5977 35.3104 22.1035 35.2063 21.6357L35.1281 21.0889L34.3469 22.5717C33.6698 23.8217 33.0188 24.915 32.3938 25.8514L32.1594 26.242C32.4219 26.8795 32.6156 27.6186 32.7031 28.3905L32.7063 28.4295C32.7495 29.032 32.6368 29.6355 32.379 30.1817C32.1211 30.728 31.727 31.1986 31.2344 31.5482L31.2234 31.5561C30.7498 31.8452 30.2592 32.1061 29.7546 32.3374L29.6609 32.3764C29.071 32.6288 28.4409 32.7742 27.8 32.8061H27.7859C27.3504 32.8364 26.9144 32.7534 26.5202 32.5655L26.5359 32.5717C26.3811 32.4401 26.2744 32.261 26.2322 32.0622C26.1901 31.8635 26.215 31.6564 26.3031 31.4733L26.3 31.4795C26.925 30.603 27.5406 29.8405 28.1953 29.1124L28.175 29.1357L29.8938 26.9499L29.5828 26.2468C29.3129 25.7451 29.085 25.222 28.9015 24.6826L28.8796 24.6076C28.7234 24.0869 28.5933 23.5925 28.489 23.1249L28.4109 22.578L27.6296 24.453C27.0058 25.9103 26.4328 27.1598 25.9109 28.2014C25.1328 29.7639 24.4818 30.9619 23.9578 31.7951L23.8015 32.0295C23.1776 33.0181 22.5786 33.5124 22.0046 33.5124C21.4308 33.5124 21.0416 33.1478 20.8375 32.4186C20.6784 31.8345 20.5985 31.2318 20.6 30.6264L20.6015 30.4576V30.4655L20.7577 29.3718V29.4499C20.3411 30.4384 19.9245 31.3494 19.5078 32.1826C19.2541 32.6844 18.9599 33.1646 18.6281 33.6186L18.6484 33.5889C18.3265 33.9264 17.8734 34.1357 17.3719 34.1357H17.3594C17.3265 34.1389 17.289 34.1389 17.2515 34.1389C16.8721 34.1393 16.5061 33.9984 16.225 33.7436L16.2265 33.7451C15.6723 33.1764 15.273 32.4748 15.0671 31.7076L15.0594 31.6749C14.7524 30.8034 14.6181 29.8805 14.664 28.9576V28.9733C14.7875 27.7295 15.0359 26.5905 15.4 25.5045L15.3671 25.6155L12.5563 27.2561V27.3342C13.069 28.4116 13.2841 29.6065 13.1796 30.7951L13.1813 30.7701C13.1056 32.3153 12.6126 33.811 11.7547 35.0982L11.775 35.067C10.9172 36.4394 9.65353 37.5107 8.15936 38.1326L8.1078 38.1514C7.2096 38.548 6.23809 38.7514 5.25624 38.7483C4.60311 38.7483 3.96874 38.6608 3.36874 38.4951L3.41874 38.5061C2.9339 38.3451 2.52231 38.0166 2.2578 37.5795L2.25311 37.5701C1.87456 37.0174 1.6566 36.3705 1.62343 35.7014V35.692C1.5246 34.7438 1.69178 33.7866 2.10624 32.928L2.09218 32.9592C2.96713 31.4561 4.2131 30.2026 5.71092 29.3186L5.7578 29.2936C6.87546 28.5253 8.04905 27.8415 9.26874 27.2482L9.43436 27.1749L9.82499 26.9405C9.35624 26.5759 8.49686 25.9509 7.24686 25.0655C5.67048 24.0154 4.16989 22.8558 2.75624 21.5951L2.7953 21.6295C1.45561 20.4819 0.505134 18.9466 0.0749881 17.2357L0.0624881 17.1764C-0.117288 16.0681 0.0796624 14.9315 0.621864 13.9482L0.609364 13.9749C1.44609 12.1554 2.66549 10.5379 4.18436 9.23266L4.20311 9.21704C5.8287 7.68265 7.6471 6.36638 9.61249 5.30141L9.74842 5.23423C11.6565 4.14613 13.6589 3.23253 15.7313 2.50454L15.9969 2.42329C18.1506 1.65124 20.4214 1.25639 22.7094 1.2561H22.7125C24.7093 1.1931 26.6913 1.61899 28.4859 2.49672L28.414 2.46391C29.8202 3.10454 30.8734 4.31079 31.2952 5.78579L31.3046 5.82329C31.6711 7.30969 31.5416 8.87511 30.9359 10.2811L30.9531 10.2358C30.3178 11.7962 29.361 13.2054 28.1452 14.3718L28.1406 14.3764C26.9268 15.58 25.4822 16.526 23.8937 17.1576L23.8077 17.1874C22.0094 17.9465 20.087 18.3696 18.1359 18.4358L18.1062 18.4374C16.8767 18.5696 15.6332 18.4581 14.4469 18.1093L14.514 18.1264C13.7919 17.9 13.1246 17.526 12.5546 17.028L12.5609 17.0326C12.1749 16.7194 11.8588 16.3286 11.6328 15.8858L11.6234 15.8655C11.4672 15.4487 11.4542 15.2014 11.5844 15.1233C11.7146 15.0451 11.8057 15.0321 11.8578 15.0842L12.2484 15.4749C12.6844 15.8795 13.2046 16.1983 13.7796 16.4014L13.8109 16.4108C14.6015 16.6858 15.514 16.8451 16.4625 16.8451C16.7671 16.8451 17.0671 16.8295 17.3625 16.7967L17.3265 16.7999C19.7464 16.5231 22.0671 15.6813 24.1015 14.342L24.0438 14.378C25.6779 13.4127 27.039 12.0468 27.9984 10.4092L28.0265 10.3561C28.4969 9.66548 28.7781 8.81235 28.7781 7.8936C28.7781 7.32954 28.6719 6.78891 28.4781 6.29204L28.489 6.32173C28.1995 5.85965 27.815 5.4644 27.3611 5.16216C26.9071 4.85992 26.3942 4.6576 25.8562 4.5686L25.8344 4.56547C24.1172 4.16034 22.3335 4.12465 20.6015 4.46079L20.6796 4.44829C18.1839 4.88712 15.7684 5.6988 13.514 6.8561L13.6563 6.78891C7.25208 10.0181 3.9453 13.3249 3.73592 16.7093V16.7858C3.73592 18.1499 4.27186 19.3889 5.1453 20.3045L5.14374 20.303C6.12855 21.4 7.23458 22.3817 8.44061 23.2295L8.50155 23.2701C9.55357 24.0531 10.5449 24.9144 11.4672 25.8468L11.4687 25.8499L11.625 26.0061L16.625 23.2733C17.1801 22.4651 17.8716 21.7598 18.6688 21.1889L18.6937 21.1717C19.3187 20.6467 20.1125 20.3045 20.9827 20.2357L20.9969 20.2342C21.0281 20.2311 21.064 20.2311 21.1015 20.2311C21.6844 20.2311 22.1844 20.5826 22.4 21.0857L22.4031 21.0951C22.6321 21.6151 22.7126 22.1884 22.6359 22.7514L22.6375 22.7358L22.4859 23.5061L22.7203 23.3499C22.8589 23.2446 23.0233 23.1785 23.1961 23.1584C23.369 23.1384 23.5441 23.165 23.7031 23.2358L23.6969 23.2326C23.8715 23.2774 24.0216 23.3889 24.1149 23.5431C24.2081 23.6975 24.237 23.8822 24.1952 24.0576L24.1969 24.053L23.9625 24.9124C23.4938 26.7862 23.1817 28.14 23.0265 28.9733C22.9261 29.3314 22.887 29.7038 22.9109 30.0749V30.0655C22.937 30.378 22.976 30.5343 23.0281 30.5343C23.0803 30.5343 23.1839 30.378 23.339 30.0655L23.5734 29.5186C23.6255 29.5186 23.6255 29.5446 23.5734 29.5968L24.4327 27.7999C26.464 23.3228 27.5573 20.8227 27.7125 20.2999L28.1813 18.817C28.2334 18.7129 28.4416 18.6093 28.8063 18.5061C29.2425 18.3913 29.6927 18.3386 30.1437 18.3499H30.139C30.8683 18.3499 31.2328 18.5321 31.2328 18.8968L31.1546 19.2874C30.9574 19.8425 30.7961 20.4099 30.6719 20.9857L30.6546 21.0843C30.576 21.6134 30.5904 22.1521 30.6969 22.6764L30.6921 22.6467L30.7702 22.9576C30.9296 23.6093 31.1719 24.1811 31.489 24.703L31.4734 24.6764C32.0974 23.6358 32.6964 22.5686 33.2702 21.4749C33.7234 20.7201 34.1452 19.8451 34.4844 18.9295L34.5202 18.8201C34.6375 18.2311 34.7719 17.7343 34.9359 17.2499L34.9109 17.3374C34.963 17.1811 35.1854 17.0639 35.5781 16.9858C35.95 16.9108 36.3765 16.8686 36.8125 16.8686H36.8688H36.8656C37.5948 16.8686 37.9839 17.0509 38.0328 17.4155L37.8765 17.7264C37.6906 18.2514 37.5281 18.8826 37.4187 19.5311L37.4094 19.6014C37.3604 20.135 37.3889 20.6729 37.4938 21.1983L37.4875 21.1624V21.4733C37.6671 22.1545 37.9344 22.753 38.2844 23.2951L38.2687 23.2701L38.5031 23.817C39.8935 23.1438 41.4193 22.7964 42.964 22.8014H43.025H43.0219L43.0202 22.8061ZM9.52186 34.1389C10.65 32.9759 11.2801 31.4186 11.2781 29.7983C11.2785 29.164 11.1826 28.5334 10.9937 27.928L11.0062 27.9717L9.75624 28.753C8.48124 29.4795 7.37811 30.2905 6.37968 31.2124L6.39217 31.2014C5.62481 31.9052 5.07274 32.8121 4.79999 33.817L4.79061 33.8561C4.55624 34.8196 4.67342 35.4446 5.14217 35.7311C5.42811 35.8624 5.76405 35.9389 6.11561 35.9389C6.49999 35.9389 6.86405 35.8482 7.18436 35.6857L7.1703 35.692C8.0654 35.3706 8.86839 34.8353 9.50936 34.1326L9.51405 34.128L9.52186 34.1389ZM19.9859 26.9451C20.2464 26.2681 20.5328 25.4608 20.8453 24.5233C21.262 23.2733 21.4053 22.5446 21.275 22.3374C21.1448 22.13 20.8974 22.104 20.5328 22.2592C20.1119 22.4614 19.7401 22.753 19.4438 23.1139L19.439 23.1201C19.1025 23.5477 18.7985 24.0001 18.5296 24.4732L18.5015 24.5264C18.171 25.072 17.9126 25.6581 17.7328 26.2701L17.7188 26.3232C17.3548 27.329 17.1959 28.3974 17.2515 29.4655V29.4467C17.3036 30.4874 17.4702 31.0473 17.7515 31.1264C18.0327 31.2056 18.3584 30.828 18.7281 29.9936C19.0859 29.3482 19.4046 28.5983 19.6421 27.8124L19.664 27.728C19.8193 27.3592 19.9255 27.0983 19.9828 26.9451H19.9859ZM28.6515 31.0858C29.1899 30.8476 29.6548 30.4699 29.9979 29.9915C30.3411 29.5131 30.55 28.9517 30.6031 28.3655L30.6046 28.353V28.2749L29.7452 29.3686L28.1844 31.0874C28.1724 31.0966 28.1626 31.1084 28.1559 31.1219C28.1491 31.1355 28.1455 31.1504 28.1452 31.1655C28.1452 31.1967 28.1609 31.2249 28.1827 31.2436C28.2327 31.2946 28.389 31.2425 28.6515 31.0874V31.0858ZM35.3688 29.6014C35.9524 29.4375 36.4665 29.0875 36.8331 28.6046C37.1997 28.1219 37.3988 27.5326 37.4 26.9264V26.8655V26.8686C37.3844 26.5561 37.3281 26.2624 37.2359 25.9842L37.2421 26.0076C36.6344 26.5483 36.1359 27.1951 35.775 27.9249L35.7577 27.9608C35.288 28.8973 35.1568 29.4431 35.364 29.5983L35.3688 29.6014Z" fill="#986DFF"/>
</g>
</svg>
