<svg xmlns="http://www.w3.org/2000/svg" width="500" height="500" style="width:100%;height:100%"><defs><clipPath id="a"><path d="M0 0h500v500H0z"/></clipPath><clipPath id="b"><path d="M0 0h500v500H0z"/></clipPath></defs><g clip-path="url(#a)"><path stroke="#FDFAFA" stroke-width="12.6" d="M360.25 276.37V331c0 60.847-49.403 110.25-110.25 110.25 0 0 0 0 0 0-60.847 0-110.25-49.403-110.25-110.25V169c0-60.847 49.403-110.25 110.25-110.25 0 0 0 0 0 0 60.847 0 110.25 49.403 110.25 110.25 0 0 0 0 0 0v107.37" fill="none" display="block"/><g display="block"><path fill="#6610F1" d="M250 151c9.934 0 18 8.066 18 18s-8.066 18-18 18-18-8.066-18-18 8.066-18 18-18z"/><path stroke="#6610F1" stroke-width="12.6" d="M250 151c9.934 0 18 8.066 18 18s-8.066 18-18 18-18-8.066-18-18 8.066-18 18-18z" fill="none"/></g></g></svg>