<svg width="34" height="40" viewBox="0 0 34 40" fill="none" xmlns="http://www.w3.org/2000/svg">
<mask id="mask0_1027_62" style="mask-type:luminance" maskUnits="userSpaceOnUse" x="0" y="0" width="33" height="40">
<path d="M32.8504 0H0.75V40H32.8504V0Z" fill="white"/>
</mask>
<g mask="url(#mask0_1027_62)">
<path d="M1.98781 36.7805L0.751449 3.8337C0.710446 2.74542 1.54468 1.82317 2.63145 1.75546L30.6552 0.00398487C31.7613 -0.0652314 32.714 0.775521 32.7833 1.88172C32.7858 1.92336 32.7872 1.96511 32.7872 2.00687V37.9083C32.7872 39.0167 31.8888 39.9151 30.7804 39.9151C30.7503 39.9151 30.7202 39.9145 30.6904 39.9131L3.9033 38.71C2.86004 38.6632 2.02706 37.8241 1.98781 36.7805Z" fill="#986DFF"/>
<mask id="mask1_1027_62" style="mask-type:luminance" maskUnits="userSpaceOnUse" x="0" y="0" width="33" height="40">
<path d="M1.98781 36.7805L0.751449 3.8337C0.710446 2.74542 1.54468 1.82317 2.63145 1.75546L30.6552 0.00398487C31.7613 -0.0652314 32.714 0.775521 32.7833 1.88172C32.7858 1.92336 32.7872 1.96511 32.7872 2.00687V37.9083C32.7872 39.0167 31.8888 39.9151 30.7804 39.9151C30.7503 39.9151 30.7202 39.9145 30.6904 39.9131L3.9033 38.71C2.86004 38.6632 2.02706 37.8241 1.98781 36.7805Z" fill="white"/>
</mask>
<g mask="url(#mask1_1027_62)">
<path d="M24.4071 4.90621L24.5986 0.30232L28.4471 0L28.6129 4.74771C28.6149 4.8048 28.6006 4.86129 28.5716 4.9105C28.5426 4.95971 28.5001 4.99959 28.4491 5.02544C28.3982 5.05127 28.3409 5.062 28.2841 5.05634C28.2272 5.05068 28.1732 5.02886 28.1284 4.99348L26.6444 3.8242L24.8872 5.15711C24.842 5.19149 24.7879 5.21227 24.7312 5.21705C24.6746 5.22182 24.6179 5.21038 24.5675 5.18406C24.5171 5.15775 24.4754 5.11765 24.447 5.06845C24.4185 5.01924 24.4047 4.96297 24.4071 4.90621ZM19.4854 15.0445C19.4854 15.8254 24.7445 15.4511 25.4505 14.9028C25.4505 9.58583 22.5976 6.79185 17.3734 6.79185C12.1493 6.79185 9.22228 9.62921 9.22228 13.8853C9.22228 21.298 19.226 21.44 19.226 25.4833C19.226 26.6183 18.6701 27.2921 17.4475 27.2921C15.8544 27.2921 15.2244 26.4784 15.2985 23.712C15.2985 23.1119 9.22227 22.9248 9.03694 23.712C8.56521 30.4161 12.742 32.3499 17.5216 32.3499C22.153 32.3499 25.7839 29.8813 25.7839 25.4124C25.7839 17.4676 15.632 17.6804 15.632 13.7435C15.632 12.1475 16.8176 11.9347 17.5217 11.9347C18.2626 11.9347 19.5965 12.0653 19.4854 15.0445Z" fill="#040405"/>
</g>
</g>
</svg>
