<svg width="40" height="40" viewBox="0 0 40 40" fill="none" xmlns="http://www.w3.org/2000/svg">
<path d="M27.0233 11.27L26.8983 11.9217C26.705 13.1567 26.775 13.51 27.305 13.9684L27.8167 14.3917L27.2867 16.755C26.97 18.165 26.5817 19.3467 26.335 19.735C26.1233 20.07 25.8767 20.5634 25.8233 20.8284C25.735 21.145 25.435 21.4634 24.9767 21.745C24.5717 21.975 23.7767 22.5917 23.2133 23.0867C22.7633 23.4917 22.4533 23.74 22.285 23.8467L21.735 24.2817C21.5936 24.4914 21.4872 24.7228 21.42 24.9667C21.3817 25.145 21.4033 25.2634 21.46 25.35C21.515 25.4334 21.61 25.4917 21.74 25.5284C21.8939 25.5644 22.0523 25.5773 22.21 25.5667C22.5668 25.5423 22.9199 25.4797 23.2633 25.38C23.38 25.3484 23.4717 25.3184 23.5517 25.2917C23.675 25.14 23.96 24.8534 24.465 24.355C25.805 23.0334 26.3167 22.31 25.7883 22.505C25.5933 22.575 25.6817 22.3984 26.0167 22.045C26.7233 21.3567 27.1283 20.3167 27.975 17.055C28.645 14.48 28.645 14.4434 29.1383 14.4434C29.37 14.4434 30.025 14.4834 30.025 14.4834V11.27H28.5217H27.0233ZM33.4217 16.545C33.315 16.545 33.1383 16.705 33.0333 16.8817C32.84 17.1984 33.0683 17.3917 35.9783 19.2084C37.7067 20.3034 39.1 21.2367 39.065 21.3084C39.03 21.36 37.6183 22.2784 35.9267 23.3367C32.8567 25.24 32.84 25.2584 33.1217 25.6467C33.475 26.105 33.1217 26.2634 37.1067 23.7767L40 21.925V20.5317L36.7717 18.5384C35.0267 17.445 33.51 16.5634 33.4217 16.545ZM6.61333 16.74C6.525 16.74 5.00833 17.64 3.26333 18.715L0 20.7084V22.1017L3.245 24.13C5.045 25.24 6.56167 26.1584 6.63167 26.1584C6.70167 26.1584 6.84333 25.9984 6.985 25.805C7.19667 25.47 7.01833 25.3284 4.03833 23.4417C1.2 21.66 0.9 21.4134 1.18333 21.22C1.36 21.0967 2.7 20.2667 4.14667 19.3684C7.445 17.34 7.26833 17.48 7.00333 17.0567C6.89833 16.8817 6.72 16.7234 6.615 16.74H6.61333ZM21.0867 16.7784C20.6 16.775 19.5533 17.5167 16.42 20.075C16.285 20.3967 16.2733 20.6184 16.335 20.7617C16.375 20.86 16.4483 20.9284 16.55 20.9784C16.65 21.0284 16.78 21.0584 16.9233 21.07C17.2083 21.095 17.545 21.05 17.8167 20.9967L18 20.955C18.0628 20.8709 18.1452 20.8033 18.24 20.7584C18.4333 20.6517 19.245 19.9117 20.0567 19.1184C21.485 17.6717 21.82 17.0184 21.2383 16.8067C21.1906 16.7877 21.1397 16.7781 21.0883 16.7784H21.0867ZM24.7467 17.7834C24.3183 17.795 23.5467 18.2917 22.225 19.3467C21.5617 19.885 21.1417 20.175 20.9167 20.235L20.0433 20.925C19.715 21.525 19.6667 21.8967 19.7533 22.1017C19.775 22.1523 19.8065 22.198 19.846 22.2364C19.8855 22.2747 19.9321 22.3048 19.9833 22.325C20.1107 22.3753 20.2464 22.4008 20.3833 22.4C20.7105 22.3965 21.0356 22.3489 21.35 22.2584C21.5138 22.2144 21.6757 22.1632 21.835 22.105L21.8833 22.085L21.9717 22.0384C22.1383 21.8234 22.5217 21.4184 23.0017 20.9517C24.5183 19.4884 25.2933 18.4484 25.135 18.06C25.0633 17.8717 24.94 17.7767 24.7467 17.7834ZM20.7067 19.5834C20.5833 19.5967 20.3067 19.81 19.8083 20.2467C19.0883 20.8834 18.3033 21.25 18.0317 21.0867C17.9685 21.1009 17.9052 21.1143 17.8417 21.1267C17.565 21.1817 17.22 21.2267 16.9117 21.2017C16.7664 21.1929 16.624 21.1573 16.4917 21.0967C16.3669 21.0396 16.2673 20.9388 16.2117 20.8134C16.15 20.6634 16.15 20.4767 16.22 20.2384L15.1367 21.1284L12.685 23.1567V26.445L20.7183 20.1167C20.7168 20.0474 20.7258 19.9783 20.745 19.9117C20.8067 19.6884 20.8033 19.575 20.7067 19.585V19.5834ZM24.1633 20.6484C24.0417 20.6484 23.8383 20.82 23.5133 21.165C23.0717 21.6367 22.3767 22.0934 22.0083 22.1867L21.9517 22.2167C21.8912 22.2417 21.8301 22.265 21.7683 22.2867C21.6683 22.32 21.5383 22.36 21.3883 22.4C21.0883 22.4817 20.715 22.5567 20.3817 22.5484C20.2245 22.5482 20.0689 22.5176 19.9233 22.4584C19.7861 22.4018 19.6762 22.2943 19.6167 22.1584C19.52 21.9267 19.5583 21.6017 19.77 21.14L12.6833 26.7217V28.73H15.7967L22.4 23.5434C22.5717 23.3534 22.83 23.0934 23.1783 22.7684C24.1117 21.9034 24.3233 21.605 24.3233 21.1634C24.3233 20.82 24.285 20.6467 24.1633 20.6467V20.6484ZM25.735 23.8984L25.17 24.4617C24.8533 24.7617 24.2883 25.1317 23.9017 25.29L23.825 25.3234L23.82 25.3317L23.8033 25.3484C23.7883 25.36 23.7817 25.3617 23.77 25.3667C23.6156 25.4251 23.4588 25.4768 23.3 25.5217C22.9469 25.6245 22.5836 25.6887 22.2167 25.7134C22.0432 25.7245 21.869 25.7093 21.7 25.6684C21.5534 25.6361 21.4239 25.5506 21.3367 25.4284C21.2567 25.305 21.2333 25.14 21.2783 24.9367C21.3141 24.7919 21.3673 24.652 21.4367 24.52L16.1083 28.73H23.195L24.0417 27.76C25.205 26.4034 25.735 25.4334 25.735 24.6034V23.8984Z" fill="#986DFF"/>
</svg>
