<svg width="200" height="200" viewBox="0 0 200 200" fill="none" xmlns="http://www.w3.org/2000/svg">
<path d="M61.5 59L88.5 39L109 42.5L120.5 46.5L133.5 53.5L143.5 65L153 72.5L169.5 75.5L189.5 69.5L176 90L164.5 98.5H143.5L122 91.5L107 78.5L90 68L72.5 66L56 75.5L61.5 59Z" fill="#FEFBFB"/>
<path d="M30 103.5L11.5 126C20.1667 125.5 38 124.8 40 126C42 127.2 48.5 130.5 51.5 132L63.5 145.5L71.5 155L91.5 159.5H109.5L124.5 155L137 143L141 129.5L126 135.5L111 132L95.5 121.5L80.5 108.5L63.5 100.5H46.5L30 103.5Z" fill="#FEFBFB"/>
<path d="M99.9998 40C75.1065 40 59.5598 53.3333 53.3332 80C62.6665 66.6667 73.5598 61.6667 85.9998 65C93.1065 66.9067 98.1732 72.4267 103.787 78.5333C112.946 88.48 123.533 100 146.667 100C171.56 100 187.106 86.6667 193.333 60C184 73.3333 173.107 78.3333 160.667 75C153.56 73.0933 148.493 67.5733 142.88 61.4667C133.72 51.52 123.133 40 99.9998 40ZM53.3332 100C28.4398 100 12.8932 113.333 6.6665 140C15.9998 126.667 26.8932 121.667 39.3332 125C46.4398 126.907 51.5065 132.427 57.1198 138.533C66.2798 148.48 76.8665 160 99.9998 160C124.893 160 140.44 146.667 146.667 120C137.333 133.333 126.44 138.333 114 135C106.893 133.093 101.827 127.573 96.2132 121.467C87.0532 111.52 76.4665 100 53.3332 100Z" stroke="#6610F2" stroke-width="8" stroke-linejoin="round"/>
</svg>
