<svg width="40" height="40" viewBox="0 0 40 40" fill="none" xmlns="http://www.w3.org/2000/svg">
<g clip-path="url(#clip0_1027_79)">
<mask id="mask0_1027_79" style="mask-type:luminance" maskUnits="userSpaceOnUse" x="0" y="0" width="40" height="40">
<path d="M40 0H0V40H40V0Z" fill="white"/>
</mask>
<g mask="url(#mask0_1027_79)">
<path d="M20.001 8C14.6676 8 11.3343 10.6667 10.001 16C12.001 13.3333 14.3343 12.3333 17.001 13C18.5226 13.38 19.6093 14.4833 20.8143 15.7067C22.776 17.6967 25.0443 20 30.001 20C35.3343 20 38.6676 17.3333 40.001 12C38.001 14.6667 35.6676 15.6667 33.001 15C31.4793 14.62 30.3926 13.5167 29.1876 12.2933C27.2276 10.3033 24.9593 8 20.001 8ZM10.001 20C4.66764 20 1.33431 22.6667 0.000976562 28C2.00098 25.3333 4.33431 24.3333 7.00098 25C8.52264 25.38 9.60931 26.4833 10.8143 27.7067C12.776 29.6967 15.0443 32 20.001 32C25.3343 32 28.6676 29.3333 30.001 24C28.001 26.6667 25.6676 27.6667 23.001 27C21.4793 26.62 20.3926 25.5167 19.1876 24.2933C17.2276 22.3033 14.9593 20 10.001 20Z" fill="#986DFF"/>
</g>
</g>
<defs>
<clipPath id="clip0_1027_79">
<rect width="40" height="40" fill="white"/>
</clipPath>
</defs>
</svg>
