<svg width="40" height="40" viewBox="0 0 40 40" fill="none" xmlns="http://www.w3.org/2000/svg">
<path d="M29.7838 10.3039C30.8478 10.5514 31.8148 11.1086 32.5625 11.9051C32.9744 12.3362 33.3321 12.816 33.6275 13.3339C33.6413 13.3901 31.71 14.6876 30.5388 15.4114C30.4963 15.4401 30.3275 15.2564 30.1363 14.9739C29.9223 14.6061 29.6186 14.2985 29.2535 14.0799C28.8885 13.8613 28.474 13.7388 28.0488 13.7239C26.7025 13.6314 25.835 14.3364 25.8413 15.5151C25.8296 15.8047 25.8957 16.0921 26.0325 16.3476C26.3288 16.9601 26.8788 17.3276 28.6063 18.0764C31.7863 19.4451 33.1513 20.3476 33.9938 21.6301C34.47 22.4404 34.7633 23.3451 34.8531 24.2807C34.9429 25.2163 34.8271 26.1602 34.5138 27.0464C34.0831 28.0181 33.4002 28.857 32.5359 29.4757C31.6716 30.0945 30.6575 30.4706 29.5988 30.5651C28.4734 30.6942 27.3363 30.6824 26.2138 30.5301C24.4944 30.2476 22.9105 29.4224 21.6938 28.1751C21.234 27.6574 20.8448 27.0812 20.5363 26.4614C20.666 26.3648 20.8026 26.2779 20.945 26.2014C21.1425 26.0889 21.89 25.6589 22.595 25.2501L23.875 24.5001L24.1425 24.8901C24.5931 25.5344 25.1666 26.0833 25.83 26.5051C26.5 26.8726 27.259 27.0468 28.0223 27.0082C28.7855 26.9695 29.523 26.7196 30.1525 26.2864C30.4772 25.9699 30.6802 25.5492 30.7259 25.098C30.7716 24.6469 30.6572 24.1941 30.4025 23.8189C30.0575 23.3251 29.3525 22.9101 27.3488 22.0414C25.7776 21.5116 24.3465 20.6334 23.1625 19.4726C22.5987 18.8301 22.1823 18.0719 21.9425 17.2514C21.7652 16.3166 21.7391 15.3594 21.865 14.4164C22.1002 13.3312 22.6634 12.3445 23.4782 11.5901C24.2929 10.8357 25.3199 10.35 26.42 10.1989C27.5402 10.065 28.6741 10.1004 29.7838 10.3039ZM19.355 12.1576L19.3688 13.9751H13.5813V30.4101H9.50001V13.9789H3.71251V12.1939C3.69712 11.5826 3.71381 10.9709 3.76251 10.3614C3.78376 10.3326 7.30251 10.3189 11.5688 10.3264L19.3325 10.3476L19.355 12.1576Z" fill="#986DFF"/>
</svg>
